<?xml version="1.0" encoding="UTF-8" standalone="no"?>
<!DOCTYPE svg PUBLIC "-//W3C//DTD SVG 1.1//EN"
 "http://www.w3.org/Graphics/SVG/1.1/DTD/svg11.dtd">
<!-- Generated by graphviz version 2.42.4 (0)
 -->
<!-- Title: G Pages: 1 -->
<svg width="1610pt" height="65pt"
 viewBox="0.00 0.00 1609.80 64.80" xmlns="http://www.w3.org/2000/svg" xmlns:xlink="http://www.w3.org/1999/xlink">
<g id="graph0" class="graph" transform="scale(1 1) rotate(0) translate(14.4 50.4)">
<title>G</title>
<polygon fill="white" stroke="transparent" points="-14.4,14.4 -14.4,-50.4 1595.4,-50.4 1595.4,14.4 -14.4,14.4"/>
<!-- D -->
<g id="node1" class="node">
<title>D</title>
<path fill="#fce8e6" stroke="#5f6368" d="M143,-36C143,-36 12,-36 12,-36 6,-36 0,-30 0,-24 0,-24 0,-12 0,-12 0,-6 6,0 12,0 12,0 143,0 143,0 149,0 155,-6 155,-12 155,-12 155,-24 155,-24 155,-30 149,-36 143,-36"/>
<text text-anchor="middle" x="77.5" y="-20.4" font-family="Arial" font-size="9.50">Detection and declaration</text>
<text text-anchor="middle" x="77.5" y="-10.4" font-family="Arial" font-size="9.50">SCC / SIEM / incident command</text>
</g>
<!-- I -->
<g id="node2" class="node">
<title>I</title>
<path fill="#fce8e6" stroke="#5f6368" d="M368,-36C368,-36 203,-36 203,-36 197,-36 191,-30 191,-24 191,-24 191,-12 191,-12 191,-6 197,0 203,0 203,0 368,0 368,0 374,0 380,-6 380,-12 380,-12 380,-24 380,-24 380,-30 374,-36 368,-36"/>
<text text-anchor="middle" x="285.5" y="-20.4" font-family="Arial" font-size="9.50">Isolate blast radius</text>
<text text-anchor="middle" x="285.5" y="-10.4" font-family="Arial" font-size="9.50">credentials, networks, service perimeters</text>
</g>
<!-- D&#45;&gt;I -->
<g id="edge1" class="edge">
<title>D&#45;&gt;I</title>
<path fill="none" stroke="#5f6368" d="M155.21,-18C164.41,-18 173.92,-18 183.41,-18"/>
<polygon fill="#5f6368" stroke="#5f6368" points="183.65,-20.45 190.65,-18 183.65,-15.55 183.65,-20.45"/>
</g>
<!-- P -->
<g id="node3" class="node">
<title>P</title>
<path fill="#fef7e0" stroke="#5f6368" d="M598,-36C598,-36 428,-36 428,-36 422,-36 416,-30 416,-24 416,-24 416,-12 416,-12 416,-6 422,0 428,0 428,0 598,0 598,0 604,0 610,-6 610,-12 610,-12 610,-24 610,-24 610,-30 604,-36 598,-36"/>
<text text-anchor="middle" x="513" y="-20.4" font-family="Arial" font-size="9.50">Preserve evidence</text>
<text text-anchor="middle" x="513" y="-10.4" font-family="Arial" font-size="9.50">logs, snapshots, hashes, chain of custody</text>
</g>
<!-- I&#45;&gt;P -->
<g id="edge2" class="edge">
<title>I&#45;&gt;P</title>
<path fill="none" stroke="#5f6368" d="M380.17,-18C389.53,-18 399.06,-18 408.51,-18"/>
<polygon fill="#5f6368" stroke="#5f6368" points="408.71,-20.45 415.71,-18 408.71,-15.55 408.71,-20.45"/>
</g>
<!-- V -->
<g id="node4" class="node">
<title>V</title>
<path fill="#fef7e0" stroke="#5f6368" d="M786,-36C786,-36 658,-36 658,-36 652,-36 646,-30 646,-24 646,-24 646,-12 646,-12 646,-6 652,0 658,0 658,0 786,0 786,0 792,0 798,-6 798,-12 798,-12 798,-24 798,-24 798,-30 792,-36 786,-36"/>
<text text-anchor="middle" x="722" y="-20.4" font-family="Arial" font-size="9.50">Select trusted recovery point</text>
<text text-anchor="middle" x="722" y="-10.4" font-family="Arial" font-size="9.50">malware and integrity validation</text>
</g>
<!-- P&#45;&gt;V -->
<g id="edge3" class="edge">
<title>P&#45;&gt;V</title>
<path fill="none" stroke="#5f6368" d="M610.23,-18C619.74,-18 629.32,-18 638.67,-18"/>
<polygon fill="#5f6368" stroke="#5f6368" points="638.77,-20.45 645.77,-18 638.77,-15.55 638.77,-20.45"/>
</g>
<!-- C -->
<g id="node5" class="node">
<title>C</title>
<path fill="#e8f0fe" stroke="#5f6368" d="M958,-36C958,-36 846,-36 846,-36 840,-36 834,-30 834,-24 834,-24 834,-12 834,-12 834,-6 840,0 846,0 846,0 958,0 958,0 964,0 970,-6 970,-12 970,-12 970,-24 970,-24 970,-30 964,-36 958,-36"/>
<text text-anchor="middle" x="902" y="-20.4" font-family="Arial" font-size="9.50">Clean&#45;room recovery project</text>
<text text-anchor="middle" x="902" y="-10.4" font-family="Arial" font-size="9.50">separate identities and keys</text>
</g>
<!-- V&#45;&gt;C -->
<g id="edge4" class="edge">
<title>V&#45;&gt;C</title>
<path fill="none" stroke="#5f6368" d="M798.23,-18C807.68,-18 817.34,-18 826.78,-18"/>
<polygon fill="#5f6368" stroke="#5f6368" points="826.94,-20.45 833.94,-18 826.94,-15.55 826.94,-20.45"/>
</g>
<!-- R -->
<g id="node6" class="node">
<title>R</title>
<path fill="#e6f4ea" stroke="#5f6368" d="M1149,-36C1149,-36 1018,-36 1018,-36 1012,-36 1006,-30 1006,-24 1006,-24 1006,-12 1006,-12 1006,-6 1012,0 1018,0 1018,0 1149,0 1149,0 1155,0 1161,-6 1161,-12 1161,-12 1161,-24 1161,-24 1161,-30 1155,-36 1149,-36"/>
<text text-anchor="middle" x="1083.5" y="-20.4" font-family="Arial" font-size="9.50">Restore data and configuration</text>
<text text-anchor="middle" x="1083.5" y="-10.4" font-family="Arial" font-size="9.50">IaC, source, backups, snapshots</text>
</g>
<!-- C&#45;&gt;R -->
<g id="edge5" class="edge">
<title>C&#45;&gt;R</title>
<path fill="none" stroke="#5f6368" d="M970.09,-18C979.38,-18 989.01,-18 998.55,-18"/>
<polygon fill="#5f6368" stroke="#5f6368" points="998.82,-20.45 1005.82,-18 998.82,-15.55 998.82,-20.45"/>
</g>
<!-- A -->
<g id="node7" class="node">
<title>A</title>
<path fill="#e6f4ea" stroke="#5f6368" d="M1369,-36C1369,-36 1209,-36 1209,-36 1203,-36 1197,-30 1197,-24 1197,-24 1197,-12 1197,-12 1197,-6 1203,0 1209,0 1209,0 1369,0 1369,0 1375,0 1381,-6 1381,-12 1381,-12 1381,-24 1381,-24 1381,-30 1375,-36 1369,-36"/>
<text text-anchor="middle" x="1289" y="-20.4" font-family="Arial" font-size="9.50">Assure before release</text>
<text text-anchor="middle" x="1289" y="-10.4" font-family="Arial" font-size="9.50">security scans, reconciliation, approvals</text>
</g>
<!-- R&#45;&gt;A -->
<g id="edge6" class="edge">
<title>R&#45;&gt;A</title>
<path fill="none" stroke="#5f6368" d="M1161.14,-18C1170.39,-18 1179.93,-18 1189.44,-18"/>
<polygon fill="#5f6368" stroke="#5f6368" points="1189.7,-20.45 1196.7,-18 1189.7,-15.55 1189.7,-20.45"/>
</g>
<!-- M -->
<g id="node8" class="node">
<title>M</title>
<path fill="#e8f0fe" stroke="#5f6368" d="M1569,-36C1569,-36 1429,-36 1429,-36 1423,-36 1417,-30 1417,-24 1417,-24 1417,-12 1417,-12 1417,-6 1423,0 1429,0 1429,0 1569,0 1569,0 1575,0 1581,-6 1581,-12 1581,-12 1581,-24 1581,-24 1581,-30 1575,-36 1569,-36"/>
<text text-anchor="middle" x="1499" y="-20.4" font-family="Arial" font-size="9.50">Controlled re&#45;entry</text>
<text text-anchor="middle" x="1499" y="-10.4" font-family="Arial" font-size="9.50">DNS/traffic, heightened monitoring</text>
</g>
<!-- A&#45;&gt;M -->
<g id="edge7" class="edge">
<title>A&#45;&gt;M</title>
<path fill="none" stroke="#5f6368" d="M1381.23,-18C1390.71,-18 1400.34,-18 1409.78,-18"/>
<polygon fill="#5f6368" stroke="#5f6368" points="1409.97,-20.45 1416.97,-18 1409.97,-15.55 1409.97,-20.45"/>
</g>
</g>
</svg>
