<?xml version="1.0" encoding="UTF-8" standalone="no"?>
<!DOCTYPE svg PUBLIC "-//W3C//DTD SVG 1.1//EN"
 "http://www.w3.org/Graphics/SVG/1.1/DTD/svg11.dtd">
<!-- Generated by graphviz version 2.42.4 (0)
 -->
<!-- Title: G Pages: 1 -->
<svg width="1418pt" height="444pt"
 viewBox="0.00 0.00 1418.00 444.00" xmlns="http://www.w3.org/2000/svg" xmlns:xlink="http://www.w3.org/1999/xlink">
<g id="graph0" class="graph" transform="scale(1 1) rotate(0) translate(18 426)">
<title>G</title>
<polygon fill="white" stroke="transparent" points="-18,18 -18,-426 1400,-426 1400,18 -18,18"/>
<g id="clust1" class="cluster">
<title>cluster_primary</title>
<polygon fill="white" stroke="#dadce0" points="254.5,-325 254.5,-400 1139.5,-400 1139.5,-325 254.5,-325"/>
<text text-anchor="middle" x="697" y="-384.8" font-family="Times,serif" font-size="14.00">Primary Regional Data Plane</text>
</g>
<g id="clust2" class="cluster">
<title>cluster_control</title>
<polygon fill="white" stroke="#dadce0" points="8,-33 8,-171 696,-171 696,-33 8,-33"/>
<text text-anchor="middle" x="352" y="-155.8" font-family="Times,serif" font-size="14.00">Global DR Control Plane</text>
</g>
<g id="clust3" class="cluster">
<title>cluster_recovery</title>
<polygon fill="white" stroke="#dadce0" points="511.5,-206 511.5,-281 1374,-281 1374,-206 511.5,-206"/>
<text text-anchor="middle" x="942.75" y="-265.8" font-family="Times,serif" font-size="14.00">Recovery Regional Data Plane</text>
</g>
<!-- p_ingest -->
<g id="node1" class="node">
<title>p_ingest</title>
<path fill="#e8f0fe" stroke="#5f6368" d="M361.5,-369C361.5,-369 274.5,-369 274.5,-369 268.5,-369 262.5,-363 262.5,-357 262.5,-357 262.5,-345 262.5,-345 262.5,-339 268.5,-333 274.5,-333 274.5,-333 361.5,-333 361.5,-333 367.5,-333 373.5,-339 373.5,-345 373.5,-345 373.5,-357 373.5,-357 373.5,-363 367.5,-369 361.5,-369"/>
<text text-anchor="middle" x="318" y="-353.4" font-family="Arial" font-size="9.50">Pub/Sub / Datastream</text>
<text text-anchor="middle" x="318" y="-343.4" font-family="Arial" font-size="9.50">regional ingestion</text>
</g>
<!-- p_proc -->
<g id="node2" class="node">
<title>p_proc</title>
<path fill="#e8f0fe" stroke="#5f6368" d="M650,-369C650,-369 536,-369 536,-369 530,-369 524,-363 524,-357 524,-357 524,-345 524,-345 524,-339 530,-333 536,-333 536,-333 650,-333 650,-333 656,-333 662,-339 662,-345 662,-345 662,-357 662,-357 662,-363 656,-369 650,-369"/>
<text text-anchor="middle" x="593" y="-353.4" font-family="Arial" font-size="9.50">Dataflow / Composer</text>
<text text-anchor="middle" x="593" y="-343.4" font-family="Arial" font-size="9.50">processing and orchestration</text>
</g>
<!-- p_ingest&#45;&gt;p_proc -->
<g id="edge1" class="edge">
<title>p_ingest&#45;&gt;p_proc</title>
<path fill="none" stroke="#5f6368" d="M373.59,-351C414.65,-351 471.4,-351 516.77,-351"/>
<polygon fill="#5f6368" stroke="#5f6368" points="516.94,-353.45 523.94,-351 516.94,-348.55 516.94,-353.45"/>
</g>
<!-- r_ingest -->
<g id="node9" class="node">
<title>r_ingest</title>
<path fill="#e8f0fe" stroke="#5f6368" d="M654.5,-250C654.5,-250 531.5,-250 531.5,-250 525.5,-250 519.5,-244 519.5,-238 519.5,-238 519.5,-226 519.5,-226 519.5,-220 525.5,-214 531.5,-214 531.5,-214 654.5,-214 654.5,-214 660.5,-214 666.5,-220 666.5,-226 666.5,-226 666.5,-238 666.5,-238 666.5,-244 660.5,-250 654.5,-250"/>
<text text-anchor="middle" x="593" y="-234.4" font-family="Arial" font-size="9.50">Standby topics, stream configs</text>
<text text-anchor="middle" x="593" y="-224.4" font-family="Arial" font-size="9.50">and source connectivity</text>
</g>
<!-- p_ingest&#45;&gt;r_ingest -->
<g id="edge11" class="edge">
<title>p_ingest&#45;&gt;r_ingest</title>
<path fill="none" stroke="#5f6368" d="M360.46,-332.93C409.81,-311.41 492.07,-275.56 544.09,-252.88"/>
<polygon fill="#5f6368" stroke="#5f6368" points="545.16,-255.09 550.6,-250.05 543.2,-250.6 545.16,-255.09"/>
<text text-anchor="middle" x="444" y="-311.6" font-family="Arial" font-size="8.00">retain / recreate</text>
</g>
<!-- p_data -->
<g id="node3" class="node">
<title>p_data</title>
<path fill="#e6f4ea" stroke="#5f6368" d="M864,-369C864,-369 763,-369 763,-369 757,-369 751,-363 751,-357 751,-357 751,-345 751,-345 751,-339 757,-333 763,-333 763,-333 864,-333 864,-333 870,-333 876,-339 876,-345 876,-345 876,-357 876,-357 876,-363 870,-369 864,-369"/>
<text text-anchor="middle" x="813.5" y="-353.4" font-family="Arial" font-size="9.50">BigQuery / Cloud Storage</text>
<text text-anchor="middle" x="813.5" y="-343.4" font-family="Arial" font-size="9.50">curated and replay data</text>
</g>
<!-- p_proc&#45;&gt;p_data -->
<g id="edge2" class="edge">
<title>p_proc&#45;&gt;p_data</title>
<path fill="none" stroke="#5f6368" d="M662.24,-351C688.1,-351 717.56,-351 743.5,-351"/>
<polygon fill="#5f6368" stroke="#5f6368" points="743.71,-353.45 750.71,-351 743.71,-348.55 743.71,-353.45"/>
</g>
<!-- p_consume -->
<g id="node4" class="node">
<title>p_consume</title>
<path fill="#e6f4ea" stroke="#5f6368" d="M1119.5,-369C1119.5,-369 1051.5,-369 1051.5,-369 1045.5,-369 1039.5,-363 1039.5,-357 1039.5,-357 1039.5,-345 1039.5,-345 1039.5,-339 1045.5,-333 1051.5,-333 1051.5,-333 1119.5,-333 1119.5,-333 1125.5,-333 1131.5,-339 1131.5,-345 1131.5,-345 1131.5,-357 1131.5,-357 1131.5,-363 1125.5,-369 1119.5,-369"/>
<text text-anchor="middle" x="1085.5" y="-353.4" font-family="Arial" font-size="9.50">Looker / Vertex AI</text>
<text text-anchor="middle" x="1085.5" y="-343.4" font-family="Arial" font-size="9.50">analytics and AI</text>
</g>
<!-- p_data&#45;&gt;p_consume -->
<g id="edge3" class="edge">
<title>p_data&#45;&gt;p_consume</title>
<path fill="none" stroke="#5f6368" d="M876.11,-351C923.14,-351 987.24,-351 1031.89,-351"/>
<polygon fill="#5f6368" stroke="#5f6368" points="1032.15,-353.45 1039.15,-351 1032.15,-348.55 1032.15,-353.45"/>
</g>
<!-- r_data -->
<g id="node11" class="node">
<title>r_data</title>
<path fill="#e6f4ea" stroke="#5f6368" d="M1159,-250C1159,-250 1012,-250 1012,-250 1006,-250 1000,-244 1000,-238 1000,-238 1000,-226 1000,-226 1000,-220 1006,-214 1012,-214 1012,-214 1159,-214 1159,-214 1165,-214 1171,-220 1171,-226 1171,-226 1171,-238 1171,-238 1171,-244 1165,-250 1159,-250"/>
<text text-anchor="middle" x="1085.5" y="-234.4" font-family="Arial" font-size="9.50">BigQuery replica/MDR</text>
<text text-anchor="middle" x="1085.5" y="-224.4" font-family="Arial" font-size="9.50">and dual&#45;region or replicated objects</text>
</g>
<!-- p_data&#45;&gt;r_data -->
<g id="edge10" class="edge">
<title>p_data&#45;&gt;r_data</title>
<path fill="none" stroke="#5f6368" d="M855.51,-332.93C904.32,-311.41 985.66,-275.56 1037.12,-252.88"/>
<polygon fill="#5f6368" stroke="#5f6368" points="1038.13,-255.11 1043.55,-250.05 1036.16,-250.63 1038.13,-255.11"/>
<text text-anchor="middle" x="944" y="-307.6" font-family="Arial" font-size="8.00">replicate / protect</text>
</g>
<!-- catalog -->
<g id="node5" class="node">
<title>catalog</title>
<path fill="#fef7e0" stroke="#5f6368" d="M173.5,-77C173.5,-77 37.5,-77 37.5,-77 31.5,-77 25.5,-71 25.5,-65 25.5,-65 25.5,-53 25.5,-53 25.5,-47 31.5,-41 37.5,-41 37.5,-41 173.5,-41 173.5,-41 179.5,-41 185.5,-47 185.5,-53 185.5,-53 185.5,-65 185.5,-65 185.5,-71 179.5,-77 173.5,-77"/>
<text text-anchor="middle" x="105.5" y="-61.4" font-family="Arial" font-size="9.50">Workload registry, BIA, RTO/RPO</text>
<text text-anchor="middle" x="105.5" y="-51.4" font-family="Arial" font-size="9.50">and dependency graph</text>
</g>
<!-- orchestrate -->
<g id="node7" class="node">
<title>orchestrate</title>
<path fill="#fef7e0" stroke="#5f6368" d="M378,-136C378,-136 258,-136 258,-136 252,-136 246,-130 246,-124 246,-124 246,-112 246,-112 246,-106 252,-100 258,-100 258,-100 378,-100 378,-100 384,-100 390,-106 390,-112 390,-112 390,-124 390,-124 390,-130 384,-136 378,-136"/>
<text text-anchor="middle" x="318" y="-120.4" font-family="Arial" font-size="9.50">Workflows / Cloud Build</text>
<text text-anchor="middle" x="318" y="-110.4" font-family="Arial" font-size="9.50">validated recovery automation</text>
</g>
<!-- catalog&#45;&gt;orchestrate -->
<g id="edge4" class="edge">
<title>catalog&#45;&gt;orchestrate</title>
<path fill="none" stroke="#5f6368" d="M170.8,-77.02C194.56,-83.68 221.62,-91.27 245.95,-98.08"/>
<polygon fill="#5f6368" stroke="#5f6368" points="245.33,-100.46 252.73,-99.99 246.65,-95.74 245.33,-100.46"/>
</g>
<!-- evidence -->
<g id="node6" class="node">
<title>evidence</title>
<path fill="#fef7e0" stroke="#5f6368" d="M183,-140C183,-140 28,-140 28,-140 22,-140 16,-134 16,-128 16,-128 16,-116 16,-116 16,-110 22,-104 28,-104 28,-104 183,-104 183,-104 189,-104 195,-110 195,-116 195,-116 195,-128 195,-128 195,-134 189,-140 183,-140"/>
<text text-anchor="middle" x="105.5" y="-124.4" font-family="Arial" font-size="9.50">Backups, snapshots, source, IaC,</text>
<text text-anchor="middle" x="105.5" y="-114.4" font-family="Arial" font-size="9.50">configuration and immutable evidence</text>
</g>
<!-- evidence&#45;&gt;orchestrate -->
<g id="edge5" class="edge">
<title>evidence&#45;&gt;orchestrate</title>
<path fill="none" stroke="#5f6368" d="M195.16,-120.32C209.51,-120.04 224.29,-119.76 238.38,-119.49"/>
<polygon fill="#5f6368" stroke="#5f6368" points="238.73,-121.94 245.68,-119.36 238.64,-117.04 238.73,-121.94"/>
</g>
<!-- r_proc -->
<g id="node10" class="node">
<title>r_proc</title>
<path fill="#e8f0fe" stroke="#5f6368" d="M876,-250C876,-250 751,-250 751,-250 745,-250 739,-244 739,-238 739,-238 739,-226 739,-226 739,-220 745,-214 751,-214 751,-214 876,-214 876,-214 882,-214 888,-220 888,-226 888,-226 888,-238 888,-238 888,-244 882,-250 876,-250"/>
<text text-anchor="middle" x="813.5" y="-234.4" font-family="Arial" font-size="9.50">Deployable Dataflow templates</text>
<text text-anchor="middle" x="813.5" y="-224.4" font-family="Arial" font-size="9.50">and Composer environment</text>
</g>
<!-- evidence&#45;&gt;r_proc -->
<g id="edge12" class="edge">
<title>evidence&#45;&gt;r_proc</title>
<path fill="none" stroke="#5f6368" d="M142.83,-140.06C210.61,-172.64 361.81,-240.06 498,-264 584.67,-279.23 608.79,-275.76 696,-264 714.35,-261.53 733.9,-256.95 751.64,-252.02"/>
<polygon fill="#5f6368" stroke="#5f6368" points="752.53,-254.31 758.6,-250.04 751.2,-249.6 752.53,-254.31"/>
</g>
<!-- comms -->
<g id="node8" class="node">
<title>comms</title>
<path fill="#fce8e6" stroke="#5f6368" d="M676,-77C676,-77 510,-77 510,-77 504,-77 498,-71 498,-65 498,-65 498,-53 498,-53 498,-47 504,-41 510,-41 510,-41 676,-41 676,-41 682,-41 688,-47 688,-53 688,-53 688,-65 688,-65 688,-71 682,-77 676,-77"/>
<text text-anchor="middle" x="593" y="-61.4" font-family="Arial" font-size="9.50">Incident command, crisis communication</text>
<text text-anchor="middle" x="593" y="-51.4" font-family="Arial" font-size="9.50">and business continuity</text>
</g>
<!-- orchestrate&#45;&gt;comms -->
<g id="edge6" class="edge">
<title>orchestrate&#45;&gt;comms</title>
<path fill="none" stroke="#5f6368" d="M390.01,-102.65C423.93,-95.32 464.92,-86.46 501.08,-78.65"/>
<polygon fill="#5f6368" stroke="#5f6368" points="501.92,-80.97 508.25,-77.1 500.89,-76.18 501.92,-80.97"/>
</g>
<!-- orchestrate&#45;&gt;r_ingest -->
<g id="edge13" class="edge">
<title>orchestrate&#45;&gt;r_ingest</title>
<path fill="none" stroke="#5f6368" d="M337.14,-136.3C355.28,-153.53 384.77,-178.77 415,-193 445.3,-207.27 481.01,-216.41 512.39,-222.23"/>
<polygon fill="#5f6368" stroke="#5f6368" points="512.1,-224.67 519.43,-223.49 512.97,-219.85 512.1,-224.67"/>
</g>
<!-- orchestrate&#45;&gt;r_proc -->
<g id="edge14" class="edge">
<title>orchestrate&#45;&gt;r_proc</title>
<path fill="none" stroke="#5f6368" d="M390.04,-133.26C482.44,-153.16 638.77,-187.09 696,-201 710.16,-204.44 725.23,-208.3 739.67,-212.1"/>
<polygon fill="#5f6368" stroke="#5f6368" points="739.31,-214.54 746.7,-213.96 740.56,-209.8 739.31,-214.54"/>
</g>
<!-- orchestrate&#45;&gt;r_data -->
<g id="edge15" class="edge">
<title>orchestrate&#45;&gt;r_data</title>
<path fill="none" stroke="#5f6368" d="M390.17,-121.42C466.2,-125.68 590.08,-134.39 696,-150 804.07,-165.93 927.21,-193.56 1005.35,-212.3"/>
<polygon fill="#5f6368" stroke="#5f6368" points="1004.93,-214.72 1012.31,-213.97 1006.07,-209.95 1004.93,-214.72"/>
</g>
<!-- r_consume -->
<g id="node12" class="node">
<title>r_consume</title>
<path fill="#e6f4ea" stroke="#5f6368" d="M1354,-250C1354,-250 1234,-250 1234,-250 1228,-250 1222,-244 1222,-238 1222,-238 1222,-226 1222,-226 1222,-220 1228,-214 1234,-214 1234,-214 1354,-214 1354,-214 1360,-214 1366,-220 1366,-226 1366,-226 1366,-238 1366,-238 1366,-244 1360,-250 1354,-250"/>
<text text-anchor="middle" x="1294" y="-234.4" font-family="Arial" font-size="9.50">Standby Looker / AI endpoints</text>
<text text-anchor="middle" x="1294" y="-224.4" font-family="Arial" font-size="9.50">or controlled degraded mode</text>
</g>
<!-- orchestrate&#45;&gt;r_consume -->
<g id="edge16" class="edge">
<title>orchestrate&#45;&gt;r_consume</title>
<path fill="none" stroke="#5f6368" d="M342.71,-99.82C388.33,-66.72 492.61,0 592,0 592,0 592,0 1086.5,0 1196.35,0 1262.14,-146.92 1284.42,-206.92"/>
<polygon fill="#5f6368" stroke="#5f6368" points="1282.23,-208.06 1286.93,-213.8 1286.83,-206.38 1282.23,-208.06"/>
</g>
<!-- r_ingest&#45;&gt;r_proc -->
<g id="edge7" class="edge">
<title>r_ingest&#45;&gt;r_proc</title>
<path fill="none" stroke="#5f6368" d="M666.76,-232C687.61,-232 710.48,-232 731.78,-232"/>
<polygon fill="#5f6368" stroke="#5f6368" points="731.94,-234.45 738.94,-232 731.94,-229.55 731.94,-234.45"/>
</g>
<!-- r_proc&#45;&gt;r_data -->
<g id="edge8" class="edge">
<title>r_proc&#45;&gt;r_data</title>
<path fill="none" stroke="#5f6368" d="M888.28,-232C920.49,-232 958.61,-232 992.64,-232"/>
<polygon fill="#5f6368" stroke="#5f6368" points="992.83,-234.45 999.83,-232 992.83,-229.55 992.83,-234.45"/>
</g>
<!-- r_data&#45;&gt;r_consume -->
<g id="edge9" class="edge">
<title>r_data&#45;&gt;r_consume</title>
<path fill="none" stroke="#5f6368" d="M1171.09,-232C1185.41,-232 1200.23,-232 1214.39,-232"/>
<polygon fill="#5f6368" stroke="#5f6368" points="1214.73,-234.45 1221.73,-232 1214.73,-229.55 1214.73,-234.45"/>
</g>
</g>
</svg>
