<?xml version="1.0" encoding="UTF-8" standalone="no"?>
<!DOCTYPE svg PUBLIC "-//W3C//DTD SVG 1.1//EN"
 "http://www.w3.org/Graphics/SVG/1.1/DTD/svg11.dtd">
<!-- Generated by graphviz version 2.42.4 (0)
 -->
<!-- Title: G Pages: 1 -->
<svg width="1450pt" height="65pt"
 viewBox="0.00 0.00 1449.80 64.80" xmlns="http://www.w3.org/2000/svg" xmlns:xlink="http://www.w3.org/1999/xlink">
<g id="graph0" class="graph" transform="scale(1 1) rotate(0) translate(14.4 50.4)">
<title>G</title>
<polygon fill="white" stroke="transparent" points="-14.4,14.4 -14.4,-50.4 1435.4,-50.4 1435.4,14.4 -14.4,14.4"/>
<!-- A -->
<g id="node1" class="node">
<title>A</title>
<path fill="#e8f0fe" stroke="#5f6368" d="M164,-36C164,-36 12,-36 12,-36 6,-36 0,-30 0,-24 0,-24 0,-12 0,-12 0,-6 6,0 12,0 12,0 164,0 164,0 170,0 176,-6 176,-12 176,-12 176,-24 176,-24 176,-30 170,-36 164,-36"/>
<text text-anchor="middle" x="88" y="-20.4" font-family="Arial" font-size="9.50">1 Detect and correlate</text>
<text text-anchor="middle" x="88" y="-10.4" font-family="Arial" font-size="9.50">provider, service and business signals</text>
</g>
<!-- B -->
<g id="node2" class="node">
<title>B</title>
<path fill="#fce8e6" stroke="#5f6368" d="M379,-36C379,-36 224,-36 224,-36 218,-36 212,-30 212,-24 212,-24 212,-12 212,-12 212,-6 218,0 224,0 224,0 379,0 379,0 385,0 391,-6 391,-12 391,-12 391,-24 391,-24 391,-30 385,-36 379,-36"/>
<text text-anchor="middle" x="301.5" y="-20.4" font-family="Arial" font-size="9.50">2 Declare disaster</text>
<text text-anchor="middle" x="301.5" y="-10.4" font-family="Arial" font-size="9.50">incident commander + business owner</text>
</g>
<!-- A&#45;&gt;B -->
<g id="edge1" class="edge">
<title>A&#45;&gt;B</title>
<path fill="none" stroke="#5f6368" d="M176.25,-18C185.59,-18 195.12,-18 204.56,-18"/>
<polygon fill="#5f6368" stroke="#5f6368" points="204.75,-20.45 211.75,-18 204.75,-15.55 204.75,-20.45"/>
</g>
<!-- C -->
<g id="node3" class="node">
<title>C</title>
<path fill="#fce8e6" stroke="#5f6368" d="M585,-36C585,-36 439,-36 439,-36 433,-36 427,-30 427,-24 427,-24 427,-12 427,-12 427,-6 433,0 439,0 439,0 585,0 585,0 591,0 597,-6 597,-12 597,-12 597,-24 597,-24 597,-30 591,-36 585,-36"/>
<text text-anchor="middle" x="512" y="-20.4" font-family="Arial" font-size="9.50">3 Fence primary</text>
<text text-anchor="middle" x="512" y="-10.4" font-family="Arial" font-size="9.50">stop writes and duplicate processing</text>
</g>
<!-- B&#45;&gt;C -->
<g id="edge2" class="edge">
<title>B&#45;&gt;C</title>
<path fill="none" stroke="#5f6368" d="M391.23,-18C400.68,-18 410.3,-18 419.78,-18"/>
<polygon fill="#5f6368" stroke="#5f6368" points="419.99,-20.45 426.99,-18 419.99,-15.55 419.99,-20.45"/>
</g>
<!-- D -->
<g id="node4" class="node">
<title>D</title>
<path fill="#fef7e0" stroke="#5f6368" d="M825,-36C825,-36 645,-36 645,-36 639,-36 633,-30 633,-24 633,-24 633,-12 633,-12 633,-6 639,0 645,0 645,0 825,0 825,0 831,0 837,-6 837,-12 837,-12 837,-24 837,-24 837,-30 831,-36 825,-36"/>
<text text-anchor="middle" x="735" y="-20.4" font-family="Arial" font-size="9.50">4 Validate recovery state</text>
<text text-anchor="middle" x="735" y="-10.4" font-family="Arial" font-size="9.50">replication lag, integrity, keys, dependencies</text>
</g>
<!-- C&#45;&gt;D -->
<g id="edge3" class="edge">
<title>C&#45;&gt;D</title>
<path fill="none" stroke="#5f6368" d="M597.18,-18C606.6,-18 616.3,-18 625.97,-18"/>
<polygon fill="#5f6368" stroke="#5f6368" points="626,-20.45 633,-18 626,-15.55 626,-20.45"/>
</g>
<!-- E -->
<g id="node5" class="node">
<title>E</title>
<path fill="#e6f4ea" stroke="#5f6368" d="M1002,-36C1002,-36 885,-36 885,-36 879,-36 873,-30 873,-24 873,-24 873,-12 873,-12 873,-6 879,0 885,0 885,0 1002,0 1002,0 1008,0 1014,-6 1014,-12 1014,-12 1014,-24 1014,-24 1014,-30 1008,-36 1002,-36"/>
<text text-anchor="middle" x="943.5" y="-20.4" font-family="Arial" font-size="9.50">5 Activate recovery plane</text>
<text text-anchor="middle" x="943.5" y="-10.4" font-family="Arial" font-size="9.50">capacity, pipelines, endpoints</text>
</g>
<!-- D&#45;&gt;E -->
<g id="edge4" class="edge">
<title>D&#45;&gt;E</title>
<path fill="none" stroke="#5f6368" d="M837.13,-18C846.74,-18 856.38,-18 865.7,-18"/>
<polygon fill="#5f6368" stroke="#5f6368" points="865.77,-20.45 872.77,-18 865.77,-15.55 865.77,-20.45"/>
</g>
<!-- F -->
<g id="node6" class="node">
<title>F</title>
<path fill="#e8f0fe" stroke="#5f6368" d="M1227,-36C1227,-36 1062,-36 1062,-36 1056,-36 1050,-30 1050,-24 1050,-24 1050,-12 1050,-12 1050,-6 1056,0 1062,0 1062,0 1227,0 1227,0 1233,0 1239,-6 1239,-12 1239,-12 1239,-24 1239,-24 1239,-30 1233,-36 1227,-36"/>
<text text-anchor="middle" x="1144.5" y="-20.4" font-family="Arial" font-size="9.50">6 Redirect consumers</text>
<text text-anchor="middle" x="1144.5" y="-10.4" font-family="Arial" font-size="9.50">DNS, configuration or application routing</text>
</g>
<!-- E&#45;&gt;F -->
<g id="edge5" class="edge">
<title>E&#45;&gt;F</title>
<path fill="none" stroke="#5f6368" d="M1014.1,-18C1023.39,-18 1033.06,-18 1042.75,-18"/>
<polygon fill="#5f6368" stroke="#5f6368" points="1042.8,-20.45 1049.8,-18 1042.8,-15.55 1042.8,-20.45"/>
</g>
<!-- G -->
<g id="node7" class="node">
<title>G</title>
<path fill="#e6f4ea" stroke="#5f6368" d="M1409,-36C1409,-36 1287,-36 1287,-36 1281,-36 1275,-30 1275,-24 1275,-24 1275,-12 1275,-12 1275,-6 1281,0 1287,0 1287,0 1409,0 1409,0 1415,0 1421,-6 1421,-12 1421,-12 1421,-24 1421,-24 1421,-30 1415,-36 1409,-36"/>
<text text-anchor="middle" x="1348" y="-20.4" font-family="Arial" font-size="9.50">7 Reconcile and monitor</text>
<text text-anchor="middle" x="1348" y="-10.4" font-family="Arial" font-size="9.50">RPO, backlog, quality, security</text>
</g>
<!-- F&#45;&gt;G -->
<g id="edge6" class="edge">
<title>F&#45;&gt;G</title>
<path fill="none" stroke="#5f6368" d="M1239.17,-18C1248.75,-18 1258.42,-18 1267.83,-18"/>
<polygon fill="#5f6368" stroke="#5f6368" points="1267.96,-20.45 1274.96,-18 1267.96,-15.55 1267.96,-20.45"/>
</g>
</g>
</svg>
