<?xml version="1.0" encoding="UTF-8" standalone="no"?>
<!DOCTYPE svg PUBLIC "-//W3C//DTD SVG 1.1//EN"
 "http://www.w3.org/Graphics/SVG/1.1/DTD/svg11.dtd">
<!-- Generated by graphviz version 2.42.4 (0)
 -->
<!-- Title: G Pages: 1 -->
<svg width="392pt" height="569pt"
 viewBox="0.00 0.00 391.80 568.80" xmlns="http://www.w3.org/2000/svg" xmlns:xlink="http://www.w3.org/1999/xlink">
<g id="graph0" class="graph" transform="scale(1 1) rotate(0) translate(14.4 554.4)">
<title>G</title>
<polygon fill="white" stroke="transparent" points="-14.4,14.4 -14.4,-554.4 377.4,-554.4 377.4,14.4 -14.4,14.4"/>
<!-- W -->
<g id="node1" class="node">
<title>W</title>
<path fill="#e8f0fe" stroke="#5f6368" d="M351,-540C351,-540 243,-540 243,-540 237,-540 231,-534 231,-528 231,-528 231,-516 231,-516 231,-510 237,-504 243,-504 243,-504 351,-504 351,-504 357,-504 363,-510 363,-516 363,-516 363,-528 363,-528 363,-534 357,-540 351,-540"/>
<text text-anchor="middle" x="297" y="-524.56" font-family="Arial" font-size="9.30">Approved recovery workflow</text>
<text text-anchor="middle" x="297" y="-514.56" font-family="Arial" font-size="9.30">change ticket + incident ID</text>
</g>
<!-- G1 -->
<g id="node2" class="node">
<title>G1</title>
<path fill="#fef7e0" stroke="#5f6368" d="M320,-468C320,-468 148,-468 148,-468 142,-468 136,-462 136,-456 136,-456 136,-444 136,-444 136,-438 142,-432 148,-432 148,-432 320,-432 320,-432 326,-432 332,-438 332,-444 332,-444 332,-456 332,-456 332,-462 326,-468 320,-468"/>
<text text-anchor="middle" x="234" y="-452.56" font-family="Arial" font-size="9.30">Gate 1: authorization</text>
<text text-anchor="middle" x="234" y="-442.56" font-family="Arial" font-size="9.30">incident commander, service owner, security</text>
</g>
<!-- W&#45;&gt;G1 -->
<g id="edge1" class="edge">
<title>W&#45;&gt;G1</title>
<path fill="none" stroke="#5f6368" d="M281.43,-503.7C273.19,-494.54 262.98,-483.19 254.14,-473.38"/>
<polygon fill="#5f6368" stroke="#5f6368" points="255.9,-471.67 249.39,-468.1 252.26,-474.95 255.9,-471.67"/>
</g>
<!-- E -->
<g id="node9" class="node">
<title>E</title>
<path fill="#e8f0fe" stroke="#5f6368" d="M249.5,-36C249.5,-36 110.5,-36 110.5,-36 104.5,-36 98.5,-30 98.5,-24 98.5,-24 98.5,-12 98.5,-12 98.5,-6 104.5,0 110.5,0 110.5,0 249.5,0 249.5,0 255.5,0 261.5,-6 261.5,-12 261.5,-12 261.5,-24 261.5,-24 261.5,-30 255.5,-36 249.5,-36"/>
<text text-anchor="middle" x="180" y="-20.56" font-family="Arial" font-size="9.30">Evidence bundle</text>
<text text-anchor="middle" x="180" y="-10.56" font-family="Arial" font-size="9.30">logs, commands, outputs, approvals</text>
</g>
<!-- W&#45;&gt;E -->
<g id="edge9" class="edge">
<title>W&#45;&gt;E</title>
<path fill="none" stroke="#5f6368" d="M314.87,-503.9C324,-494.19 334.53,-481.34 341,-468 358.65,-431.61 360,-419.45 360,-379 360,-379 360,-379 360,-161 360,-116.68 347.78,-101.83 315,-72 298.79,-57.24 277.98,-46.39 257.59,-38.5"/>
<polygon fill="#5f6368" stroke="#5f6368" points="258.4,-36.19 250.99,-36.04 256.69,-40.78 258.4,-36.19"/>
</g>
<!-- D -->
<g id="node3" class="node">
<title>D</title>
<path fill="#e6f4ea" stroke="#5f6368" d="M313.5,-396C313.5,-396 170.5,-396 170.5,-396 164.5,-396 158.5,-390 158.5,-384 158.5,-384 158.5,-372 158.5,-372 158.5,-366 164.5,-360 170.5,-360 170.5,-360 313.5,-360 313.5,-360 319.5,-360 325.5,-366 325.5,-372 325.5,-372 325.5,-384 325.5,-384 325.5,-390 319.5,-396 313.5,-396"/>
<text text-anchor="middle" x="242" y="-380.56" font-family="Arial" font-size="9.30">Data recovery</text>
<text text-anchor="middle" x="242" y="-370.56" font-family="Arial" font-size="9.30">BigQuery / Cloud Storage / metadata</text>
</g>
<!-- G1&#45;&gt;D -->
<g id="edge2" class="edge">
<title>G1&#45;&gt;D</title>
<path fill="none" stroke="#5f6368" d="M235.98,-431.7C236.96,-423.14 238.15,-412.66 239.22,-403.3"/>
<polygon fill="#5f6368" stroke="#5f6368" points="241.68,-403.34 240.05,-396.1 236.82,-402.78 241.68,-403.34"/>
</g>
<!-- I -->
<g id="node4" class="node">
<title>I</title>
<path fill="#e6f4ea" stroke="#5f6368" d="M128,-396C128,-396 46,-396 46,-396 40,-396 34,-390 34,-384 34,-384 34,-372 34,-372 34,-366 40,-360 46,-360 46,-360 128,-360 128,-360 134,-360 140,-366 140,-372 140,-372 140,-384 140,-384 140,-390 134,-396 128,-396"/>
<text text-anchor="middle" x="87" y="-380.56" font-family="Arial" font-size="9.30">Ingestion recovery</text>
<text text-anchor="middle" x="87" y="-370.56" font-family="Arial" font-size="9.30">Pub/Sub / Datastream</text>
</g>
<!-- G1&#45;&gt;I -->
<g id="edge3" class="edge">
<title>G1&#45;&gt;I</title>
<path fill="none" stroke="#5f6368" d="M198.04,-431.88C177.32,-422.01 151.16,-409.55 129.43,-399.21"/>
<polygon fill="#5f6368" stroke="#5f6368" points="130.22,-396.87 122.84,-396.07 128.11,-401.29 130.22,-396.87"/>
</g>
<!-- P -->
<g id="node5" class="node">
<title>P</title>
<path fill="#e6f4ea" stroke="#5f6368" d="M163,-324C163,-324 85,-324 85,-324 79,-324 73,-318 73,-312 73,-312 73,-300 73,-300 73,-294 79,-288 85,-288 85,-288 163,-288 163,-288 169,-288 175,-294 175,-300 175,-300 175,-312 175,-312 175,-318 169,-324 163,-324"/>
<text text-anchor="middle" x="124" y="-308.56" font-family="Arial" font-size="9.30">Processing recovery</text>
<text text-anchor="middle" x="124" y="-298.56" font-family="Arial" font-size="9.30">Dataflow / Composer</text>
</g>
<!-- D&#45;&gt;P -->
<g id="edge4" class="edge">
<title>D&#45;&gt;P</title>
<path fill="none" stroke="#5f6368" d="M213.13,-359.88C196.85,-350.22 176.38,-338.07 159.16,-327.86"/>
<polygon fill="#5f6368" stroke="#5f6368" points="160.25,-325.65 152.98,-324.19 157.75,-329.87 160.25,-325.65"/>
</g>
<!-- D&#45;&gt;E -->
<g id="edge10" class="edge">
<title>D&#45;&gt;E</title>
<path fill="none" stroke="#5f6368" d="M259.36,-359.93C282.89,-334.89 322,-285.65 322,-235 322,-235 322,-235 322,-161 322,-118.5 315.75,-103.31 287,-72 274.13,-57.98 256.72,-47.2 239.7,-39.14"/>
<polygon fill="#5f6368" stroke="#5f6368" points="240.34,-36.74 232.95,-36.07 238.31,-41.2 240.34,-36.74"/>
</g>
<!-- I&#45;&gt;P -->
<g id="edge5" class="edge">
<title>I&#45;&gt;P</title>
<path fill="none" stroke="#5f6368" d="M96.15,-359.7C100.81,-350.88 106.54,-340.03 111.59,-330.47"/>
<polygon fill="#5f6368" stroke="#5f6368" points="113.85,-331.44 114.96,-324.1 109.52,-329.15 113.85,-331.44"/>
</g>
<!-- I&#45;&gt;E -->
<g id="edge11" class="edge">
<title>I&#45;&gt;E</title>
<path fill="none" stroke="#5f6368" d="M67.69,-359.82C42.06,-335.01 0,-286.46 0,-235 0,-235 0,-235 0,-161 0,-98.97 66.7,-59.84 118.89,-38.72"/>
<polygon fill="#5f6368" stroke="#5f6368" points="119.9,-40.96 125.51,-36.11 118.1,-36.4 119.9,-40.96"/>
</g>
<!-- C -->
<g id="node6" class="node">
<title>C</title>
<path fill="#e6f4ea" stroke="#5f6368" d="M203.5,-252C203.5,-252 118.5,-252 118.5,-252 112.5,-252 106.5,-246 106.5,-240 106.5,-240 106.5,-228 106.5,-228 106.5,-222 112.5,-216 118.5,-216 118.5,-216 203.5,-216 203.5,-216 209.5,-216 215.5,-222 215.5,-228 215.5,-228 215.5,-240 215.5,-240 215.5,-246 209.5,-252 203.5,-252"/>
<text text-anchor="middle" x="161" y="-236.56" font-family="Arial" font-size="9.30">Consumption recovery</text>
<text text-anchor="middle" x="161" y="-226.56" font-family="Arial" font-size="9.30">Looker / Vertex AI</text>
</g>
<!-- P&#45;&gt;C -->
<g id="edge6" class="edge">
<title>P&#45;&gt;C</title>
<path fill="none" stroke="#5f6368" d="M133.15,-287.7C137.81,-278.88 143.54,-268.03 148.59,-258.47"/>
<polygon fill="#5f6368" stroke="#5f6368" points="150.85,-259.44 151.96,-252.1 146.52,-257.15 150.85,-259.44"/>
</g>
<!-- P&#45;&gt;E -->
<g id="edge12" class="edge">
<title>P&#45;&gt;E</title>
<path fill="none" stroke="#5f6368" d="M109.57,-287.86C87.18,-259.19 47.64,-199.23 58,-144 64.33,-110.25 63.51,-97.95 86,-72 97.7,-58.5 113.73,-47.7 129.24,-39.47"/>
<polygon fill="#5f6368" stroke="#5f6368" points="130.72,-41.46 135.84,-36.09 128.49,-37.1 130.72,-41.46"/>
</g>
<!-- G2 -->
<g id="node7" class="node">
<title>G2</title>
<path fill="#fef7e0" stroke="#5f6368" d="M243,-180C243,-180 79,-180 79,-180 73,-180 67,-174 67,-168 67,-168 67,-156 67,-156 67,-150 73,-144 79,-144 79,-144 243,-144 243,-144 249,-144 255,-150 255,-156 255,-156 255,-168 255,-168 255,-174 249,-180 243,-180"/>
<text text-anchor="middle" x="161" y="-164.56" font-family="Arial" font-size="9.30">Gate 2: validation</text>
<text text-anchor="middle" x="161" y="-154.56" font-family="Arial" font-size="9.30">reconciliation, security, performance, RPO</text>
</g>
<!-- C&#45;&gt;G2 -->
<g id="edge7" class="edge">
<title>C&#45;&gt;G2</title>
<path fill="none" stroke="#5f6368" d="M161,-215.7C161,-207.14 161,-196.66 161,-187.3"/>
<polygon fill="#5f6368" stroke="#5f6368" points="163.45,-187.1 161,-180.1 158.55,-187.1 163.45,-187.1"/>
</g>
<!-- C&#45;&gt;E -->
<g id="edge13" class="edge">
<title>C&#45;&gt;E</title>
<path fill="none" stroke="#5f6368" d="M215.7,-217.7C234.29,-209.63 253.09,-197.61 264,-180 289.28,-139.2 288.29,-113.97 265,-72 257.39,-58.29 244.59,-47.66 231.21,-39.64"/>
<polygon fill="#5f6368" stroke="#5f6368" points="232.33,-37.46 225.03,-36.14 229.91,-41.72 232.33,-37.46"/>
</g>
<!-- R -->
<g id="node8" class="node">
<title>R</title>
<path fill="#fce8e6" stroke="#5f6368" d="M244,-108C244,-108 116,-108 116,-108 110,-108 104,-102 104,-96 104,-96 104,-84 104,-84 104,-78 110,-72 116,-72 116,-72 244,-72 244,-72 250,-72 256,-78 256,-84 256,-84 256,-96 256,-96 256,-102 250,-108 244,-108"/>
<text text-anchor="middle" x="180" y="-87.56" font-family="Arial" font-size="9.30">Release traffic and publish status</text>
</g>
<!-- G2&#45;&gt;R -->
<g id="edge8" class="edge">
<title>G2&#45;&gt;R</title>
<path fill="none" stroke="#5f6368" d="M165.7,-143.7C168.04,-135.05 170.92,-124.45 173.48,-115.03"/>
<polygon fill="#5f6368" stroke="#5f6368" points="175.89,-115.5 175.36,-108.1 171.16,-114.22 175.89,-115.5"/>
</g>
<!-- G2&#45;&gt;E -->
<g id="edge14" class="edge">
<title>G2&#45;&gt;E</title>
<path fill="none" stroke="#5f6368" d="M128.95,-143.88C115.88,-135.05 102.18,-122.97 95,-108 88.08,-93.57 87.24,-85.99 95,-72 102.61,-58.29 115.41,-47.66 128.79,-39.64"/>
<polygon fill="#5f6368" stroke="#5f6368" points="130.09,-41.72 134.97,-36.14 127.67,-37.46 130.09,-41.72"/>
</g>
<!-- R&#45;&gt;E -->
<g id="edge15" class="edge">
<title>R&#45;&gt;E</title>
<path fill="none" stroke="#5f6368" d="M180,-71.7C180,-63.14 180,-52.66 180,-43.3"/>
<polygon fill="#5f6368" stroke="#5f6368" points="182.45,-43.1 180,-36.1 177.55,-43.1 182.45,-43.1"/>
</g>
</g>
</svg>
