<?xml version="1.0" encoding="UTF-8" standalone="no"?>
<!DOCTYPE svg PUBLIC "-//W3C//DTD SVG 1.1//EN"
 "http://www.w3.org/Graphics/SVG/1.1/DTD/svg11.dtd">
<!-- Generated by graphviz version 2.42.4 (0)
 -->
<!-- Title: G Pages: 1 -->
<svg width="964pt" height="142pt"
 viewBox="0.00 0.00 964.30 141.80" xmlns="http://www.w3.org/2000/svg" xmlns:xlink="http://www.w3.org/1999/xlink">
<g id="graph0" class="graph" transform="scale(1 1) rotate(0) translate(14.4 127.4)">
<title>G</title>
<polygon fill="white" stroke="transparent" points="-14.4,14.4 -14.4,-127.4 949.9,-127.4 949.9,14.4 -14.4,14.4"/>
<!-- T0 -->
<g id="node1" class="node">
<title>T0</title>
<path fill="#fce8e6" stroke="#5f6368" d="M245,-41C245,-41 12,-41 12,-41 6,-41 0,-35 0,-29 0,-29 0,-12 0,-12 0,-6 6,0 12,0 12,0 245,0 245,0 251,0 257,-6 257,-12 257,-12 257,-29 257,-29 257,-35 251,-41 245,-41"/>
<text text-anchor="middle" x="128.5" y="-29" font-family="Arial" font-size="10.00">Tier 0</text>
<text text-anchor="middle" x="128.5" y="-18" font-family="Arial" font-size="10.00">RTO &lt;1h | RPO &lt;5m</text>
<text text-anchor="middle" x="128.5" y="-7" font-family="Arial" font-size="10.00">Hot/warm, pre&#45;provisioned capacity, automated failover</text>
</g>
<!-- T1 -->
<g id="node2" class="node">
<title>T1</title>
<path fill="#fef7e0" stroke="#5f6368" d="M495.5,-41C495.5,-41 287.5,-41 287.5,-41 281.5,-41 275.5,-35 275.5,-29 275.5,-29 275.5,-12 275.5,-12 275.5,-6 281.5,0 287.5,0 287.5,0 495.5,0 495.5,0 501.5,0 507.5,-6 507.5,-12 507.5,-12 507.5,-29 507.5,-29 507.5,-35 501.5,-41 495.5,-41"/>
<text text-anchor="middle" x="391.5" y="-29" font-family="Arial" font-size="10.00">Tier 1</text>
<text text-anchor="middle" x="391.5" y="-18" font-family="Arial" font-size="10.00">RTO &lt;4h | RPO &lt;15m</text>
<text text-anchor="middle" x="391.5" y="-7" font-family="Arial" font-size="10.00">Warm standby, replicated data, automated rebuild</text>
</g>
<!-- T2 -->
<g id="node3" class="node">
<title>T2</title>
<path fill="#e8f0fe" stroke="#5f6368" d="M711,-41C711,-41 538,-41 538,-41 532,-41 526,-35 526,-29 526,-29 526,-12 526,-12 526,-6 532,0 538,0 538,0 711,0 711,0 717,0 723,-6 723,-12 723,-12 723,-29 723,-29 723,-35 717,-41 711,-41"/>
<text text-anchor="middle" x="624.5" y="-29" font-family="Arial" font-size="10.00">Tier 2</text>
<text text-anchor="middle" x="624.5" y="-18" font-family="Arial" font-size="10.00">RTO &lt;24h | RPO &lt;24h</text>
<text text-anchor="middle" x="624.5" y="-7" font-family="Arial" font-size="10.00">Pilot light/cold rebuild from protected data</text>
</g>
<!-- T3 -->
<g id="node4" class="node">
<title>T3</title>
<path fill="#e6f4ea" stroke="#5f6368" d="M923.5,-41C923.5,-41 753.5,-41 753.5,-41 747.5,-41 741.5,-35 741.5,-29 741.5,-29 741.5,-12 741.5,-12 741.5,-6 747.5,0 753.5,0 753.5,0 923.5,0 923.5,0 929.5,0 935.5,-6 935.5,-12 935.5,-12 935.5,-29 935.5,-29 935.5,-35 929.5,-41 923.5,-41"/>
<text text-anchor="middle" x="838.5" y="-29" font-family="Arial" font-size="10.00">Tier 3 / Archive</text>
<text text-anchor="middle" x="838.5" y="-18" font-family="Arial" font-size="10.00">Business&#45;approved targets</text>
<text text-anchor="middle" x="838.5" y="-7" font-family="Arial" font-size="10.00">Restore on demand, lower&#45;cost retention</text>
</g>
<!-- BIA -->
<g id="node5" class="node">
<title>BIA</title>
<path fill="#f8f9fa" stroke="#5f6368" d="M600,-113C600,-113 415,-113 415,-113 409,-113 403,-107 403,-101 403,-101 403,-89 403,-89 403,-83 409,-77 415,-77 415,-77 600,-77 600,-77 606,-77 612,-83 612,-89 612,-89 612,-101 612,-101 612,-107 606,-113 600,-113"/>
<text text-anchor="middle" x="507.5" y="-98" font-family="Arial" font-size="10.00">Business impact analysis</text>
<text text-anchor="middle" x="507.5" y="-87" font-family="Arial" font-size="10.00">legal, revenue, safety, operations, reputation</text>
</g>
<!-- BIA&#45;&gt;T0 -->
<g id="edge1" class="edge">
<title>BIA&#45;&gt;T0</title>
<path fill="none" stroke="#5f6368" d="M418.16,-76.91C364.12,-66.57 294.82,-53.31 237.55,-42.36"/>
<polygon fill="#5f6368" stroke="#5f6368" points="237.96,-39.95 230.63,-41.04 237.04,-44.76 237.96,-39.95"/>
</g>
<!-- BIA&#45;&gt;T1 -->
<g id="edge2" class="edge">
<title>BIA&#45;&gt;T1</title>
<path fill="none" stroke="#5f6368" d="M480.01,-76.82C464.73,-67.27 445.51,-55.26 428.89,-44.87"/>
<polygon fill="#5f6368" stroke="#5f6368" points="430.13,-42.75 422.89,-41.12 427.53,-46.91 430.13,-42.75"/>
</g>
<!-- BIA&#45;&gt;T2 -->
<g id="edge3" class="edge">
<title>BIA&#45;&gt;T2</title>
<path fill="none" stroke="#5f6368" d="M535.23,-76.82C550.63,-67.27 570.02,-55.26 586.79,-44.87"/>
<polygon fill="#5f6368" stroke="#5f6368" points="588.18,-46.89 592.84,-41.12 585.6,-42.72 588.18,-46.89"/>
</g>
<!-- BIA&#45;&gt;T3 -->
<g id="edge4" class="edge">
<title>BIA&#45;&gt;T3</title>
<path fill="none" stroke="#5f6368" d="M585.52,-76.91C632.44,-66.63 692.51,-53.48 742.34,-42.56"/>
<polygon fill="#5f6368" stroke="#5f6368" points="742.99,-44.93 749.31,-41.04 741.94,-40.14 742.99,-44.93"/>
</g>
</g>
</svg>
