<?xml version="1.0" encoding="UTF-8" standalone="no"?>
<!DOCTYPE svg PUBLIC "-//W3C//DTD SVG 1.1//EN"
 "http://www.w3.org/Graphics/SVG/1.1/DTD/svg11.dtd">
<!-- Generated by graphviz version 2.42.4 (0)
 -->
<!-- Title: G Pages: 1 -->
<svg width="1395pt" height="153pt"
 viewBox="0.00 0.00 1394.80 152.80" xmlns="http://www.w3.org/2000/svg" xmlns:xlink="http://www.w3.org/1999/xlink">
<g id="graph0" class="graph" transform="scale(1 1) rotate(0) translate(14.4 138.4)">
<title>G</title>
<polygon fill="white" stroke="transparent" points="-14.4,14.4 -14.4,-138.4 1380.4,-138.4 1380.4,14.4 -14.4,14.4"/>
<!-- Search -->
<g id="node1" class="node">
<title>Search</title>
<path fill="#e8f0fe" stroke="#5f6368" d="M204,-55C204,-55 12,-55 12,-55 6,-55 0,-49 0,-43 0,-43 0,-31 0,-31 0,-25 6,-19 12,-19 12,-19 204,-19 204,-19 210,-19 216,-25 216,-31 216,-31 216,-43 216,-43 216,-49 210,-55 204,-55"/>
<text text-anchor="middle" x="108" y="-34.5" font-family="Arial" font-size="10.00">Discover in Knowledge Catalog / Marketplace</text>
</g>
<!-- Request -->
<g id="node2" class="node">
<title>Request</title>
<path fill="#e8f0fe" stroke="#5f6368" d="M330,-55C330,-55 265,-55 265,-55 259,-55 253,-49 253,-43 253,-43 253,-31 253,-31 253,-25 259,-19 265,-19 265,-19 330,-19 330,-19 336,-19 342,-25 342,-31 342,-31 342,-43 342,-43 342,-49 336,-55 330,-55"/>
<text text-anchor="middle" x="297.5" y="-34.5" font-family="Arial" font-size="10.00">Request Access</text>
</g>
<!-- Search&#45;&gt;Request -->
<g id="edge1" class="edge">
<title>Search&#45;&gt;Request</title>
<path fill="none" stroke="#5f6368" d="M216.17,-37C225.38,-37 234.42,-37 242.92,-37"/>
<polygon fill="#5f6368" stroke="#5f6368" points="242.98,-40.5 252.98,-37 242.98,-33.5 242.98,-40.5"/>
</g>
<!-- Classify -->
<g id="node3" class="node">
<title>Classify</title>
<path fill="#e8f0fe" stroke="#5f6368" d="M533,-55C533,-55 391,-55 391,-55 385,-55 379,-49 379,-43 379,-43 379,-31 379,-31 379,-25 385,-19 391,-19 391,-19 533,-19 533,-19 539,-19 545,-25 545,-31 545,-31 545,-43 545,-43 545,-49 539,-55 533,-55"/>
<text text-anchor="middle" x="462" y="-34.5" font-family="Arial" font-size="10.00">Evaluate Classification &amp; Purpose</text>
</g>
<!-- Request&#45;&gt;Classify -->
<g id="edge2" class="edge">
<title>Request&#45;&gt;Classify</title>
<path fill="none" stroke="#5f6368" d="M342.05,-37C350.4,-37 359.44,-37 368.67,-37"/>
<polygon fill="#5f6368" stroke="#5f6368" points="368.74,-40.5 378.74,-37 368.74,-33.5 368.74,-40.5"/>
</g>
<!-- Approve -->
<g id="node4" class="node">
<title>Approve</title>
<path fill="#e8f0fe" stroke="#5f6368" d="M784,-90C784,-90 674,-90 674,-90 668,-90 662,-84 662,-78 662,-78 662,-66 662,-66 662,-60 668,-54 674,-54 674,-54 784,-54 784,-54 790,-54 796,-60 796,-66 796,-66 796,-78 796,-78 796,-84 790,-90 784,-90"/>
<text text-anchor="middle" x="729" y="-69.5" font-family="Arial" font-size="10.00">Owner + Security Approval</text>
</g>
<!-- Classify&#45;&gt;Approve -->
<g id="edge3" class="edge">
<title>Classify&#45;&gt;Approve</title>
<path fill="none" stroke="#5f6368" d="M545.03,-47.83C579.06,-52.33 618.3,-57.51 651.7,-61.92"/>
<polygon fill="#5f6368" stroke="#5f6368" points="651.5,-65.43 661.87,-63.27 652.41,-58.49 651.5,-65.43"/>
<text text-anchor="middle" x="603.5" y="-64.8" font-family="Times,serif" font-size="14.00">eligible</text>
</g>
<!-- Deny -->
<g id="node8" class="node">
<title>Deny</title>
<path fill="#fce8e6" stroke="#5f6368" d="M765,-36C765,-36 693,-36 693,-36 687,-36 681,-30 681,-24 681,-24 681,-12 681,-12 681,-6 687,0 693,0 693,0 765,0 765,0 771,0 777,-6 777,-12 777,-12 777,-24 777,-24 777,-30 771,-36 765,-36"/>
<text text-anchor="middle" x="729" y="-15.5" font-family="Arial" font-size="10.00">Deny / Remediate</text>
</g>
<!-- Classify&#45;&gt;Deny -->
<g id="edge4" class="edge">
<title>Classify&#45;&gt;Deny</title>
<path fill="none" stroke="#5f6368" d="M545.1,-28.49C551.16,-27.95 557.17,-27.45 563,-27 598.75,-24.24 638.91,-22.03 670.67,-20.49"/>
<polygon fill="#5f6368" stroke="#5f6368" points="670.84,-23.99 680.67,-20.01 670.51,-16.99 670.84,-23.99"/>
<text text-anchor="middle" x="603.5" y="-30.8" font-family="Times,serif" font-size="14.00">not eligible</text>
</g>
<!-- Grant -->
<g id="node5" class="node">
<title>Grant</title>
<path fill="#e8f0fe" stroke="#5f6368" d="M1053,-90C1053,-90 845,-90 845,-90 839,-90 833,-84 833,-78 833,-78 833,-66 833,-66 833,-60 839,-54 845,-54 845,-54 1053,-54 1053,-54 1059,-54 1065,-60 1065,-66 1065,-66 1065,-78 1065,-78 1065,-84 1059,-90 1053,-90"/>
<text text-anchor="middle" x="949" y="-69.5" font-family="Arial" font-size="10.00">Grant IAM / Authorized View / Subscriber Access</text>
</g>
<!-- Approve&#45;&gt;Grant -->
<g id="edge5" class="edge">
<title>Approve&#45;&gt;Grant</title>
<path fill="none" stroke="#5f6368" d="M796.3,-72C804.76,-72 813.63,-72 822.66,-72"/>
<polygon fill="#5f6368" stroke="#5f6368" points="822.9,-75.5 832.9,-72 822.9,-68.5 822.9,-75.5"/>
</g>
<!-- Audit -->
<g id="node6" class="node">
<title>Audit</title>
<path fill="#e8f0fe" stroke="#5f6368" d="M1199,-124C1199,-124 1114,-124 1114,-124 1108,-124 1102,-118 1102,-112 1102,-112 1102,-100 1102,-100 1102,-94 1108,-88 1114,-88 1114,-88 1199,-88 1199,-88 1205,-88 1211,-94 1211,-100 1211,-100 1211,-112 1211,-112 1211,-118 1205,-124 1199,-124"/>
<text text-anchor="middle" x="1156.5" y="-103.5" font-family="Arial" font-size="10.00">Log &amp; Monitor Usage</text>
</g>
<!-- Grant&#45;&gt;Audit -->
<g id="edge6" class="edge">
<title>Grant&#45;&gt;Audit</title>
<path fill="none" stroke="#5f6368" d="M1059.07,-90.05C1070.35,-91.91 1081.53,-93.76 1092.07,-95.5"/>
<polygon fill="#5f6368" stroke="#5f6368" points="1091.51,-98.96 1101.95,-97.14 1092.65,-92.05 1091.51,-98.96"/>
</g>
<!-- Review -->
<g id="node7" class="node">
<title>Review</title>
<path fill="#e8f0fe" stroke="#5f6368" d="M1354,-90C1354,-90 1260,-90 1260,-90 1254,-90 1248,-84 1248,-78 1248,-78 1248,-66 1248,-66 1248,-60 1254,-54 1260,-54 1260,-54 1354,-54 1354,-54 1360,-54 1366,-60 1366,-66 1366,-66 1366,-78 1366,-78 1366,-84 1360,-90 1354,-90"/>
<text text-anchor="middle" x="1307" y="-69.5" font-family="Arial" font-size="10.00">Periodic Recertification</text>
</g>
<!-- Audit&#45;&gt;Review -->
<g id="edge7" class="edge">
<title>Audit&#45;&gt;Review</title>
<path fill="none" stroke="#5f6368" d="M1211.11,-93.73C1219.9,-91.71 1229.1,-89.61 1238.18,-87.53"/>
<polygon fill="#5f6368" stroke="#5f6368" points="1238.98,-90.93 1247.95,-85.29 1237.42,-84.11 1238.98,-90.93"/>
</g>
<!-- Review&#45;&gt;Grant -->
<g id="edge8" class="edge">
<title>Review&#45;&gt;Grant</title>
<path fill="none" stroke="#5f6368" d="M1247.64,-72C1200.97,-72 1133.87,-72 1075.19,-72"/>
<polygon fill="#5f6368" stroke="#5f6368" points="1075.09,-68.5 1065.09,-72 1075.09,-75.5 1075.09,-68.5"/>
</g>
</g>
</svg>
