<?xml version="1.0" encoding="UTF-8" standalone="no"?>
<!DOCTYPE svg PUBLIC "-//W3C//DTD SVG 1.1//EN"
 "http://www.w3.org/Graphics/SVG/1.1/DTD/svg11.dtd">
<!-- Generated by graphviz version 2.42.4 (0)
 -->
<!-- Title: G Pages: 1 -->
<svg width="706pt" height="212pt"
 viewBox="0.00 0.00 705.80 211.80" xmlns="http://www.w3.org/2000/svg" xmlns:xlink="http://www.w3.org/1999/xlink">
<g id="graph0" class="graph" transform="scale(1 1) rotate(0) translate(14.4 197.4)">
<title>G</title>
<polygon fill="white" stroke="transparent" points="-14.4,14.4 -14.4,-197.4 691.4,-197.4 691.4,14.4 -14.4,14.4"/>
<g id="clust1" class="cluster">
<title>cluster_domain</title>
<polygon fill="white" stroke="#1a73e8" points="10.5,-46 10.5,-175 291,-175 291,-46 10.5,-46"/>
<text text-anchor="middle" x="150.75" y="-159.8" font-family="Arial" font-size="14.00">Domain Project</text>
</g>
<g id="clust2" class="cluster">
<title>cluster_market</title>
<polygon fill="white" stroke="#34a853" points="311,-19 311,-148 505,-148 505,-19 311,-19"/>
<text text-anchor="middle" x="408" y="-132.8" font-family="Arial" font-size="14.00">Marketplace / Sharing Project</text>
</g>
<g id="clust3" class="cluster">
<title>cluster_cons</title>
<polygon fill="white" stroke="#fbbc04" points="525,-19 525,-148 669,-148 669,-19 525,-19"/>
<text text-anchor="middle" x="597" y="-132.8" font-family="Arial" font-size="14.00">Consumer Project</text>
</g>
<!-- ProducerSA -->
<g id="node1" class="node">
<title>ProducerSA</title>
<path fill="#e8f0fe" stroke="#5f6368" d="M132.5,-144C132.5,-144 30.5,-144 30.5,-144 24.5,-144 18.5,-138 18.5,-132 18.5,-132 18.5,-120 18.5,-120 18.5,-114 24.5,-108 30.5,-108 30.5,-108 132.5,-108 132.5,-108 138.5,-108 144.5,-114 144.5,-120 144.5,-120 144.5,-132 144.5,-132 144.5,-138 138.5,-144 132.5,-144"/>
<text text-anchor="middle" x="81.5" y="-123.5" font-family="Arial" font-size="10.00">producer service account</text>
</g>
<!-- ProductDS -->
<g id="node2" class="node">
<title>ProductDS</title>
<path fill="#e8f0fe" stroke="#5f6368" d="M271,-90C271,-90 211,-90 211,-90 205,-90 199,-84 199,-78 199,-78 199,-66 199,-66 199,-60 205,-54 211,-54 211,-54 271,-54 271,-54 277,-54 283,-60 283,-66 283,-66 283,-78 283,-78 283,-84 277,-90 271,-90"/>
<text text-anchor="middle" x="241" y="-69.5" font-family="Arial" font-size="10.00">product dataset</text>
</g>
<!-- ProducerSA&#45;&gt;ProductDS -->
<g id="edge1" class="edge">
<title>ProducerSA&#45;&gt;ProductDS</title>
<path fill="none" stroke="#5f6368" d="M136.66,-107.95C145.47,-104.98 154.49,-101.92 163,-99 171.47,-96.09 180.45,-92.98 189.18,-89.93"/>
<polygon fill="#5f6368" stroke="#5f6368" points="190.59,-93.14 198.88,-86.54 188.28,-86.54 190.59,-93.14"/>
</g>
<!-- Listing -->
<g id="node4" class="node">
<title>Listing</title>
<path fill="#e6f4ea" stroke="#5f6368" d="M449,-117C449,-117 366,-117 366,-117 360,-117 354,-111 354,-105 354,-105 354,-93 354,-93 354,-87 360,-81 366,-81 366,-81 449,-81 449,-81 455,-81 461,-87 461,-93 461,-93 461,-105 461,-105 461,-111 455,-117 449,-117"/>
<text text-anchor="middle" x="407.5" y="-96.5" font-family="Arial" font-size="10.00">Analytics Hub listing</text>
</g>
<!-- ProductDS&#45;&gt;Listing -->
<g id="edge4" class="edge">
<title>ProductDS&#45;&gt;Listing</title>
<path fill="none" stroke="#5f6368" d="M283.09,-78.74C301.4,-81.75 323.39,-85.36 343.7,-88.69"/>
<polygon fill="#5f6368" stroke="#5f6368" points="343.39,-92.19 353.82,-90.35 344.52,-85.28 343.39,-92.19"/>
</g>
<!-- AuthView -->
<g id="node5" class="node">
<title>AuthView</title>
<path fill="#e6f4ea" stroke="#5f6368" d="M438,-63C438,-63 377,-63 377,-63 371,-63 365,-57 365,-51 365,-51 365,-39 365,-39 365,-33 371,-27 377,-27 377,-27 438,-27 438,-27 444,-27 450,-33 450,-39 450,-39 450,-51 450,-51 450,-57 444,-63 438,-63"/>
<text text-anchor="middle" x="407.5" y="-42.5" font-family="Arial" font-size="10.00">authorized view</text>
</g>
<!-- ProductDS&#45;&gt;AuthView -->
<g id="edge3" class="edge">
<title>ProductDS&#45;&gt;AuthView</title>
<path fill="none" stroke="#5f6368" d="M283.09,-65.26C304.8,-61.69 331.68,-57.28 354.81,-53.48"/>
<polygon fill="#5f6368" stroke="#5f6368" points="355.49,-56.92 364.8,-51.85 354.36,-50.01 355.49,-56.92"/>
</g>
<!-- StewardGroup -->
<g id="node3" class="node">
<title>StewardGroup</title>
<path fill="#e8f0fe" stroke="#5f6368" d="M108.5,-90C108.5,-90 54.5,-90 54.5,-90 48.5,-90 42.5,-84 42.5,-78 42.5,-78 42.5,-66 42.5,-66 42.5,-60 48.5,-54 54.5,-54 54.5,-54 108.5,-54 108.5,-54 114.5,-54 120.5,-60 120.5,-66 120.5,-66 120.5,-78 120.5,-78 120.5,-84 114.5,-90 108.5,-90"/>
<text text-anchor="middle" x="81.5" y="-69.5" font-family="Arial" font-size="10.00">steward group</text>
</g>
<!-- StewardGroup&#45;&gt;ProductDS -->
<g id="edge2" class="edge">
<title>StewardGroup&#45;&gt;ProductDS</title>
<path fill="none" stroke="#5f6368" d="M120.63,-72C141.06,-72 166.52,-72 188.67,-72"/>
<polygon fill="#5f6368" stroke="#5f6368" points="188.91,-75.5 198.91,-72 188.91,-68.5 188.91,-75.5"/>
</g>
<!-- ConsumerGroup -->
<g id="node6" class="node">
<title>ConsumerGroup</title>
<path fill="#fef7e0" stroke="#5f6368" d="M628,-117C628,-117 566,-117 566,-117 560,-117 554,-111 554,-105 554,-105 554,-93 554,-93 554,-87 560,-81 566,-81 566,-81 628,-81 628,-81 634,-81 640,-87 640,-93 640,-93 640,-105 640,-105 640,-111 634,-117 628,-117"/>
<text text-anchor="middle" x="597" y="-96.5" font-family="Arial" font-size="10.00">consumer group</text>
</g>
<!-- Listing&#45;&gt;ConsumerGroup -->
<g id="edge6" class="edge">
<title>Listing&#45;&gt;ConsumerGroup</title>
<path fill="none" stroke="#5f6368" d="M461.23,-99C486.93,-99 517.76,-99 543.44,-99"/>
<polygon fill="#5f6368" stroke="#5f6368" points="543.74,-102.5 553.74,-99 543.74,-95.5 543.74,-102.5"/>
</g>
<!-- ConsumerSA -->
<g id="node7" class="node">
<title>ConsumerSA</title>
<path fill="#fef7e0" stroke="#5f6368" d="M649,-63C649,-63 545,-63 545,-63 539,-63 533,-57 533,-51 533,-51 533,-39 533,-39 533,-33 539,-27 545,-27 545,-27 649,-27 649,-27 655,-27 661,-33 661,-39 661,-39 661,-51 661,-51 661,-57 655,-63 649,-63"/>
<text text-anchor="middle" x="597" y="-42.5" font-family="Arial" font-size="10.00">workload service account</text>
</g>
<!-- AuthView&#45;&gt;ConsumerSA -->
<g id="edge7" class="edge">
<title>AuthView&#45;&gt;ConsumerSA</title>
<path fill="none" stroke="#5f6368" d="M450.11,-45C471.45,-45 498.07,-45 522.7,-45"/>
<polygon fill="#5f6368" stroke="#5f6368" points="522.75,-48.5 532.75,-45 522.75,-41.5 522.75,-48.5"/>
</g>
<!-- Sec -->
<g id="node8" class="node">
<title>Sec</title>
<path fill="#fce8e6" stroke="#5f6368" d="M151,-36C151,-36 12,-36 12,-36 6,-36 0,-30 0,-24 0,-24 0,-12 0,-12 0,-6 6,0 12,0 12,0 151,0 151,0 157,0 163,-6 163,-12 163,-12 163,-24 163,-24 163,-30 157,-36 151,-36"/>
<text text-anchor="middle" x="81.5" y="-15.5" font-family="Arial" font-size="10.00">policy tags, row access, masking</text>
</g>
<!-- Sec&#45;&gt;ProductDS -->
<g id="edge5" class="edge">
<title>Sec&#45;&gt;ProductDS</title>
<path fill="none" stroke="#5f6368" d="M145.07,-36.11C151.15,-38.03 157.21,-40.01 163,-42 171.57,-44.94 180.6,-48.26 189.34,-51.58"/>
<polygon fill="#5f6368" stroke="#5f6368" points="188.08,-54.85 198.67,-55.18 190.6,-48.32 188.08,-54.85"/>
</g>
</g>
</svg>
