<?xml version="1.0" encoding="UTF-8" standalone="no"?>
<!DOCTYPE svg PUBLIC "-//W3C//DTD SVG 1.1//EN"
 "http://www.w3.org/Graphics/SVG/1.1/DTD/svg11.dtd">
<!-- Generated by graphviz version 2.42.4 (0)
 -->
<!-- Title: G Pages: 1 -->
<svg width="1249pt" height="65pt"
 viewBox="0.00 0.00 1248.80 64.80" xmlns="http://www.w3.org/2000/svg" xmlns:xlink="http://www.w3.org/1999/xlink">
<g id="graph0" class="graph" transform="scale(1 1) rotate(0) translate(14.4 50.4)">
<title>G</title>
<polygon fill="white" stroke="transparent" points="-14.4,14.4 -14.4,-50.4 1234.4,-50.4 1234.4,14.4 -14.4,14.4"/>
<!-- Idea -->
<g id="node1" class="node">
<title>Idea</title>
<path fill="#e8f0fe" stroke="#5f6368" d="M88,-36C88,-36 12,-36 12,-36 6,-36 0,-30 0,-24 0,-24 0,-12 0,-12 0,-6 6,0 12,0 12,0 88,0 88,0 94,0 100,-6 100,-12 100,-12 100,-24 100,-24 100,-30 94,-36 88,-36"/>
<text text-anchor="middle" x="50" y="-15.5" font-family="Arial" font-size="10.00">1. Identify Demand</text>
</g>
<!-- Design -->
<g id="node2" class="node">
<title>Design</title>
<path fill="#e8f0fe" stroke="#5f6368" d="M221,-36C221,-36 148,-36 148,-36 142,-36 136,-30 136,-24 136,-24 136,-12 136,-12 136,-6 142,0 148,0 148,0 221,0 221,0 227,0 233,-6 233,-12 233,-12 233,-24 233,-24 233,-30 227,-36 221,-36"/>
<text text-anchor="middle" x="184.5" y="-15.5" font-family="Arial" font-size="10.00">2. Define Contract</text>
</g>
<!-- Idea&#45;&gt;Design -->
<g id="edge1" class="edge">
<title>Idea&#45;&gt;Design</title>
<path fill="none" stroke="#5f6368" d="M100.34,-18C108.6,-18 117.24,-18 125.7,-18"/>
<polygon fill="#5f6368" stroke="#5f6368" points="125.88,-21.5 135.88,-18 125.88,-14.5 125.88,-21.5"/>
</g>
<!-- Build -->
<g id="node3" class="node">
<title>Build</title>
<path fill="#e8f0fe" stroke="#5f6368" d="M344,-36C344,-36 281,-36 281,-36 275,-36 269,-30 269,-24 269,-24 269,-12 269,-12 269,-6 275,0 281,0 281,0 344,0 344,0 350,0 356,-6 356,-12 356,-12 356,-24 356,-24 356,-30 350,-36 344,-36"/>
<text text-anchor="middle" x="312.5" y="-15.5" font-family="Arial" font-size="10.00">3. Build Pipeline</text>
</g>
<!-- Design&#45;&gt;Build -->
<g id="edge2" class="edge">
<title>Design&#45;&gt;Build</title>
<path fill="none" stroke="#5f6368" d="M233.14,-18C241.46,-18 250.16,-18 258.62,-18"/>
<polygon fill="#5f6368" stroke="#5f6368" points="258.77,-21.5 268.77,-18 258.77,-14.5 258.77,-21.5"/>
</g>
<!-- Validate -->
<g id="node4" class="node">
<title>Validate</title>
<path fill="#e8f0fe" stroke="#5f6368" d="M525,-36C525,-36 404,-36 404,-36 398,-36 392,-30 392,-24 392,-24 392,-12 392,-12 392,-6 398,0 404,0 404,0 525,0 525,0 531,0 537,-6 537,-12 537,-12 537,-24 537,-24 537,-30 531,-36 525,-36"/>
<text text-anchor="middle" x="464.5" y="-15.5" font-family="Arial" font-size="10.00">4. Validate Quality &amp; Security</text>
</g>
<!-- Build&#45;&gt;Validate -->
<g id="edge3" class="edge">
<title>Build&#45;&gt;Validate</title>
<path fill="none" stroke="#5f6368" d="M356.08,-18C364.2,-18 372.95,-18 381.82,-18"/>
<polygon fill="#5f6368" stroke="#5f6368" points="381.86,-21.5 391.86,-18 381.86,-14.5 381.86,-21.5"/>
</g>
<!-- Certify -->
<g id="node5" class="node">
<title>Certify</title>
<path fill="#e8f0fe" stroke="#5f6368" d="M618,-36C618,-36 585,-36 585,-36 579,-36 573,-30 573,-24 573,-24 573,-12 573,-12 573,-6 579,0 585,0 585,0 618,0 618,0 624,0 630,-6 630,-12 630,-12 630,-24 630,-24 630,-30 624,-36 618,-36"/>
<text text-anchor="middle" x="601.5" y="-15.5" font-family="Arial" font-size="10.00">5. Certify</text>
</g>
<!-- Validate&#45;&gt;Certify -->
<g id="edge4" class="edge">
<title>Validate&#45;&gt;Certify</title>
<path fill="none" stroke="#5f6368" d="M537.35,-18C546.1,-18 554.76,-18 562.73,-18"/>
<polygon fill="#5f6368" stroke="#5f6368" points="562.76,-21.5 572.76,-18 562.76,-14.5 562.76,-21.5"/>
</g>
<!-- Publish -->
<g id="node6" class="node">
<title>Publish</title>
<path fill="#e8f0fe" stroke="#5f6368" d="M782,-36C782,-36 678,-36 678,-36 672,-36 666,-30 666,-24 666,-24 666,-12 666,-12 666,-6 672,0 678,0 678,0 782,0 782,0 788,0 794,-6 794,-12 794,-12 794,-24 794,-24 794,-30 788,-36 782,-36"/>
<text text-anchor="middle" x="730" y="-15.5" font-family="Arial" font-size="10.00">6. Publish to Marketplace</text>
</g>
<!-- Certify&#45;&gt;Publish -->
<g id="edge5" class="edge">
<title>Certify&#45;&gt;Publish</title>
<path fill="none" stroke="#5f6368" d="M630.26,-18C637.92,-18 646.61,-18 655.58,-18"/>
<polygon fill="#5f6368" stroke="#5f6368" points="655.79,-21.5 665.79,-18 655.79,-14.5 655.79,-21.5"/>
</g>
<!-- Operate -->
<g id="node7" class="node">
<title>Operate</title>
<path fill="#e8f0fe" stroke="#5f6368" d="M929,-36C929,-36 842,-36 842,-36 836,-36 830,-30 830,-24 830,-24 830,-12 830,-12 830,-6 836,0 842,0 842,0 929,0 929,0 935,0 941,-6 941,-12 941,-12 941,-24 941,-24 941,-30 935,-36 929,-36"/>
<text text-anchor="middle" x="885.5" y="-15.5" font-family="Arial" font-size="10.00">7. Operate with SLOs</text>
</g>
<!-- Publish&#45;&gt;Operate -->
<g id="edge6" class="edge">
<title>Publish&#45;&gt;Operate</title>
<path fill="none" stroke="#5f6368" d="M794.32,-18C802.66,-18 811.21,-18 819.58,-18"/>
<polygon fill="#5f6368" stroke="#5f6368" points="819.66,-21.5 829.66,-18 819.66,-14.5 819.66,-21.5"/>
</g>
<!-- Evolve -->
<g id="node8" class="node">
<title>Evolve</title>
<path fill="#e8f0fe" stroke="#5f6368" d="M1064,-36C1064,-36 989,-36 989,-36 983,-36 977,-30 977,-24 977,-24 977,-12 977,-12 977,-6 983,0 989,0 989,0 1064,0 1064,0 1070,0 1076,-6 1076,-12 1076,-12 1076,-24 1076,-24 1076,-30 1070,-36 1064,-36"/>
<text text-anchor="middle" x="1026.5" y="-15.5" font-family="Arial" font-size="10.00">8. Version / Evolve</text>
</g>
<!-- Operate&#45;&gt;Evolve -->
<g id="edge7" class="edge">
<title>Operate&#45;&gt;Evolve</title>
<path fill="none" stroke="#5f6368" d="M941.04,-11.39C949.47,-11.23 958.22,-11.21 966.74,-11.32"/>
<polygon fill="#5f6368" stroke="#5f6368" points="966.92,-14.83 976.99,-11.53 967.06,-7.83 966.92,-14.83"/>
</g>
<!-- Evolve&#45;&gt;Operate -->
<g id="edge8" class="edge">
<title>Evolve&#45;&gt;Operate</title>
<path fill="none" stroke="#5f6368" d="M976.99,-24.47C968.64,-24.7 959.85,-24.79 951.16,-24.74"/>
<polygon fill="#5f6368" stroke="#5f6368" points="951.08,-21.23 941.04,-24.61 950.99,-28.23 951.08,-21.23"/>
</g>
<!-- Deprecate -->
<g id="node9" class="node">
<title>Deprecate</title>
<path fill="#e8f0fe" stroke="#5f6368" d="M1208,-36C1208,-36 1124,-36 1124,-36 1118,-36 1112,-30 1112,-24 1112,-24 1112,-12 1112,-12 1112,-6 1118,0 1124,0 1124,0 1208,0 1208,0 1214,0 1220,-6 1220,-12 1220,-12 1220,-24 1220,-24 1220,-30 1214,-36 1208,-36"/>
<text text-anchor="middle" x="1166" y="-15.5" font-family="Arial" font-size="10.00">9. Deprecate / Retire</text>
</g>
<!-- Evolve&#45;&gt;Deprecate -->
<g id="edge9" class="edge">
<title>Evolve&#45;&gt;Deprecate</title>
<path fill="none" stroke="#5f6368" d="M1076.36,-18C1084.49,-18 1093.01,-18 1101.44,-18"/>
<polygon fill="#5f6368" stroke="#5f6368" points="1101.62,-21.5 1111.62,-18 1101.62,-14.5 1101.62,-21.5"/>
</g>
</g>
</svg>
