<?xml version="1.0" encoding="UTF-8" standalone="no"?>
<!DOCTYPE svg PUBLIC "-//W3C//DTD SVG 1.1//EN"
 "http://www.w3.org/Graphics/SVG/1.1/DTD/svg11.dtd">
<!-- Generated by graphviz version 2.42.4 (0)
 -->
<!-- Title: G Pages: 1 -->
<svg width="992pt" height="137pt"
 viewBox="0.00 0.00 991.80 136.80" xmlns="http://www.w3.org/2000/svg" xmlns:xlink="http://www.w3.org/1999/xlink">
<g id="graph0" class="graph" transform="scale(1 1) rotate(0) translate(14.4 122.4)">
<title>G</title>
<polygon fill="white" stroke="transparent" points="-14.4,14.4 -14.4,-122.4 977.4,-122.4 977.4,14.4 -14.4,14.4"/>
<!-- Contract -->
<g id="node1" class="node">
<title>Contract</title>
<path fill="#e8f0fe" stroke="#5f6368" d="M473.5,-108C473.5,-108 419.5,-108 419.5,-108 413.5,-108 407.5,-102 407.5,-96 407.5,-96 407.5,-84 407.5,-84 407.5,-78 413.5,-72 419.5,-72 419.5,-72 473.5,-72 473.5,-72 479.5,-72 485.5,-78 485.5,-84 485.5,-84 485.5,-96 485.5,-96 485.5,-102 479.5,-108 473.5,-108"/>
<text text-anchor="middle" x="446.5" y="-87.5" font-family="Arial" font-size="10.00">Data Contract</text>
</g>
<!-- Identity -->
<g id="node2" class="node">
<title>Identity</title>
<path fill="#e8f0fe" stroke="#5f6368" d="M93,-36C93,-36 12,-36 12,-36 6,-36 0,-30 0,-24 0,-24 0,-12 0,-12 0,-6 6,0 12,0 12,0 93,0 93,0 99,0 105,-6 105,-12 105,-12 105,-24 105,-24 105,-30 99,-36 93,-36"/>
<text text-anchor="middle" x="52.5" y="-21" font-family="Arial" font-size="10.00">Product Identity</text>
<text text-anchor="middle" x="52.5" y="-10" font-family="Arial" font-size="10.00">owner, version, SLA</text>
</g>
<!-- Contract&#45;&gt;Identity -->
<g id="edge1" class="edge">
<title>Contract&#45;&gt;Identity</title>
<path fill="none" stroke="#5f6368" d="M407.27,-84.23C346.56,-76.53 226.07,-59.97 115.31,-36.28"/>
<polygon fill="#5f6368" stroke="#5f6368" points="115.82,-32.81 105.31,-34.11 114.34,-39.65 115.82,-32.81"/>
</g>
<!-- Schema -->
<g id="node3" class="node">
<title>Schema</title>
<path fill="#e8f0fe" stroke="#5f6368" d="M232,-36C232,-36 135,-36 135,-36 129,-36 123,-30 123,-24 123,-24 123,-12 123,-12 123,-6 129,0 135,0 135,0 232,0 232,0 238,0 244,-6 244,-12 244,-12 244,-24 244,-24 244,-30 238,-36 232,-36"/>
<text text-anchor="middle" x="183.5" y="-21" font-family="Arial" font-size="10.00">Schema</text>
<text text-anchor="middle" x="183.5" y="-10" font-family="Arial" font-size="10.00">fields, types, semantics</text>
</g>
<!-- Contract&#45;&gt;Schema -->
<g id="edge2" class="edge">
<title>Contract&#45;&gt;Schema</title>
<path fill="none" stroke="#5f6368" d="M407.41,-78.6C367.12,-67.87 303.41,-50.92 254.24,-37.83"/>
<polygon fill="#5f6368" stroke="#5f6368" points="254.86,-34.37 244.29,-35.18 253.06,-41.14 254.86,-34.37"/>
</g>
<!-- Quality -->
<g id="node4" class="node">
<title>Quality</title>
<path fill="#e8f0fe" stroke="#5f6368" d="M352.5,-36C352.5,-36 274.5,-36 274.5,-36 268.5,-36 262.5,-30 262.5,-24 262.5,-24 262.5,-12 262.5,-12 262.5,-6 268.5,0 274.5,0 274.5,0 352.5,0 352.5,0 358.5,0 364.5,-6 364.5,-12 364.5,-12 364.5,-24 364.5,-24 364.5,-30 358.5,-36 352.5,-36"/>
<text text-anchor="middle" x="313.5" y="-21" font-family="Arial" font-size="10.00">Quality Rules</text>
<text text-anchor="middle" x="313.5" y="-10" font-family="Arial" font-size="10.00">thresholds, severity</text>
</g>
<!-- Contract&#45;&gt;Quality -->
<g id="edge3" class="edge">
<title>Contract&#45;&gt;Quality</title>
<path fill="none" stroke="#5f6368" d="M413.96,-71.88C396.25,-62.55 374.15,-50.92 355.18,-40.94"/>
<polygon fill="#5f6368" stroke="#5f6368" points="356.64,-37.75 346.16,-36.19 353.38,-43.94 356.64,-37.75"/>
</g>
<!-- Security -->
<g id="node5" class="node">
<title>Security</title>
<path fill="#e8f0fe" stroke="#5f6368" d="M498,-36C498,-36 395,-36 395,-36 389,-36 383,-30 383,-24 383,-24 383,-12 383,-12 383,-6 389,0 395,0 395,0 498,0 498,0 504,0 510,-6 510,-12 510,-12 510,-24 510,-24 510,-30 504,-36 498,-36"/>
<text text-anchor="middle" x="446.5" y="-21" font-family="Arial" font-size="10.00">Security</text>
<text text-anchor="middle" x="446.5" y="-10" font-family="Arial" font-size="10.00">classification, policy tags</text>
</g>
<!-- Contract&#45;&gt;Security -->
<g id="edge4" class="edge">
<title>Contract&#45;&gt;Security</title>
<path fill="none" stroke="#5f6368" d="M446.5,-71.7C446.5,-63.98 446.5,-54.71 446.5,-46.11"/>
<polygon fill="#5f6368" stroke="#5f6368" points="450,-46.1 446.5,-36.1 443,-46.1 450,-46.1"/>
</g>
<!-- Freshness -->
<g id="node6" class="node">
<title>Freshness</title>
<path fill="#e8f0fe" stroke="#5f6368" d="M638.5,-36C638.5,-36 540.5,-36 540.5,-36 534.5,-36 528.5,-30 528.5,-24 528.5,-24 528.5,-12 528.5,-12 528.5,-6 534.5,0 540.5,0 540.5,0 638.5,0 638.5,0 644.5,0 650.5,-6 650.5,-12 650.5,-12 650.5,-24 650.5,-24 650.5,-30 644.5,-36 638.5,-36"/>
<text text-anchor="middle" x="589.5" y="-21" font-family="Arial" font-size="10.00">Freshness &amp; Availability</text>
<text text-anchor="middle" x="589.5" y="-10" font-family="Arial" font-size="10.00">RPO/RTO/SLO</text>
</g>
<!-- Contract&#45;&gt;Freshness -->
<g id="edge5" class="edge">
<title>Contract&#45;&gt;Freshness</title>
<path fill="none" stroke="#5f6368" d="M481.48,-71.88C500.7,-62.47 524.73,-50.71 545.24,-40.67"/>
<polygon fill="#5f6368" stroke="#5f6368" points="546.94,-43.73 554.38,-36.19 543.86,-37.44 546.94,-43.73"/>
</g>
<!-- Interfaces -->
<g id="node7" class="node">
<title>Interfaces</title>
<path fill="#e8f0fe" stroke="#5f6368" d="M806,-36C806,-36 681,-36 681,-36 675,-36 669,-30 669,-24 669,-24 669,-12 669,-12 669,-6 675,0 681,0 681,0 806,0 806,0 812,0 818,-6 818,-12 818,-12 818,-24 818,-24 818,-30 812,-36 806,-36"/>
<text text-anchor="middle" x="743.5" y="-21" font-family="Arial" font-size="10.00">Interfaces</text>
<text text-anchor="middle" x="743.5" y="-10" font-family="Arial" font-size="10.00">BigQuery, BigLake, API, event</text>
</g>
<!-- Contract&#45;&gt;Interfaces -->
<g id="edge6" class="edge">
<title>Contract&#45;&gt;Interfaces</title>
<path fill="none" stroke="#5f6368" d="M485.63,-79.78C530.15,-69.28 604.11,-51.85 661.43,-38.34"/>
<polygon fill="#5f6368" stroke="#5f6368" points="662.27,-41.74 671.2,-36.04 660.66,-34.93 662.27,-41.74"/>
</g>
<!-- Change -->
<g id="node8" class="node">
<title>Change</title>
<path fill="#e8f0fe" stroke="#5f6368" d="M951,-36C951,-36 848,-36 848,-36 842,-36 836,-30 836,-24 836,-24 836,-12 836,-12 836,-6 842,0 848,0 848,0 951,0 951,0 957,0 963,-6 963,-12 963,-12 963,-24 963,-24 963,-30 957,-36 951,-36"/>
<text text-anchor="middle" x="899.5" y="-21" font-family="Arial" font-size="10.00">Change Policy</text>
<text text-anchor="middle" x="899.5" y="-10" font-family="Arial" font-size="10.00">compatibility, deprecation</text>
</g>
<!-- Contract&#45;&gt;Change -->
<g id="edge7" class="edge">
<title>Contract&#45;&gt;Change</title>
<path fill="none" stroke="#5f6368" d="M485.64,-84.78C553.13,-77.24 695.94,-60.12 825.84,-36.22"/>
<polygon fill="#5f6368" stroke="#5f6368" points="826.77,-39.61 835.97,-34.34 825.49,-32.73 826.77,-39.61"/>
</g>
</g>
</svg>
