<?xml version="1.0" encoding="UTF-8" standalone="no"?>
<!DOCTYPE svg PUBLIC "-//W3C//DTD SVG 1.1//EN"
 "http://www.w3.org/Graphics/SVG/1.1/DTD/svg11.dtd">
<!-- Generated by graphviz version 2.42.4 (0)
 -->
<!-- Title: G Pages: 1 -->
<svg width="708pt" height="353pt"
 viewBox="0.00 0.00 708.30 352.80" xmlns="http://www.w3.org/2000/svg" xmlns:xlink="http://www.w3.org/1999/xlink">
<g id="graph0" class="graph" transform="scale(1 1) rotate(0) translate(14.4 338.4)">
<title>G</title>
<polygon fill="white" stroke="transparent" points="-14.4,14.4 -14.4,-338.4 693.9,-338.4 693.9,14.4 -14.4,14.4"/>
<!-- Org -->
<g id="node1" class="node">
<title>Org</title>
<polygon fill="#e8f0fe" stroke="#5f6368" points="375.5,-324 372.5,-328 351.5,-328 348.5,-324 304.5,-324 304.5,-288 375.5,-288 375.5,-324"/>
<text text-anchor="middle" x="340" y="-303.5" font-family="Arial" font-size="10.00">Organization</text>
</g>
<!-- DataFolder -->
<g id="node2" class="node">
<title>DataFolder</title>
<polygon fill="#e8f0fe" stroke="#5f6368" points="393.5,-252 390.5,-256 369.5,-256 366.5,-252 286.5,-252 286.5,-216 393.5,-216 393.5,-252"/>
<text text-anchor="middle" x="340" y="-231.5" font-family="Arial" font-size="10.00">folders/data&#45;domains</text>
</g>
<!-- Org&#45;&gt;DataFolder -->
<g id="edge1" class="edge">
<title>Org&#45;&gt;DataFolder</title>
<path fill="none" stroke="#5f6368" d="M340,-287.7C340,-279.98 340,-270.71 340,-262.11"/>
<polygon fill="#5f6368" stroke="#5f6368" points="343.5,-262.1 340,-252.1 336.5,-262.1 343.5,-262.1"/>
</g>
<!-- Domain -->
<g id="node3" class="node">
<title>Domain</title>
<polygon fill="#e8f0fe" stroke="#5f6368" points="399.5,-180 396.5,-184 375.5,-184 372.5,-180 280.5,-180 280.5,-144 399.5,-144 399.5,-180"/>
<text text-anchor="middle" x="340" y="-159.5" font-family="Arial" font-size="10.00">folder/customer&#45;domain</text>
</g>
<!-- DataFolder&#45;&gt;Domain -->
<g id="edge2" class="edge">
<title>DataFolder&#45;&gt;Domain</title>
<path fill="none" stroke="#5f6368" d="M340,-215.7C340,-207.98 340,-198.71 340,-190.11"/>
<polygon fill="#5f6368" stroke="#5f6368" points="343.5,-190.1 340,-180.1 336.5,-190.1 343.5,-190.1"/>
</g>
<!-- Dev -->
<g id="node4" class="node">
<title>Dev</title>
<polygon fill="#e8f0fe" stroke="#5f6368" points="200,-108 197,-112 176,-112 173,-108 132,-108 132,-72 200,-72 200,-108"/>
<text text-anchor="middle" x="166" y="-87.5" font-family="Arial" font-size="10.00">prj&#45;cust&#45;dev</text>
</g>
<!-- Domain&#45;&gt;Dev -->
<g id="edge3" class="edge">
<title>Domain&#45;&gt;Dev</title>
<path fill="none" stroke="#5f6368" d="M297.43,-143.88C270.82,-133.17 236.63,-119.41 209.79,-108.61"/>
<polygon fill="#5f6368" stroke="#5f6368" points="210.84,-105.27 200.26,-104.78 208.23,-111.76 210.84,-105.27"/>
</g>
<!-- Test -->
<g id="node5" class="node">
<title>Test</title>
<polygon fill="#e8f0fe" stroke="#5f6368" points="286,-108 283,-112 262,-112 259,-108 218,-108 218,-72 286,-72 286,-108"/>
<text text-anchor="middle" x="252" y="-87.5" font-family="Arial" font-size="10.00">prj&#45;cust&#45;test</text>
</g>
<!-- Domain&#45;&gt;Test -->
<g id="edge4" class="edge">
<title>Domain&#45;&gt;Test</title>
<path fill="none" stroke="#5f6368" d="M318.25,-143.7C307.16,-134.88 293.53,-124.03 281.51,-114.47"/>
<polygon fill="#5f6368" stroke="#5f6368" points="283.51,-111.59 273.5,-108.1 279.15,-117.07 283.51,-111.59"/>
</g>
<!-- Prod -->
<g id="node6" class="node">
<title>Prod</title>
<polygon fill="#e8f0fe" stroke="#5f6368" points="375.5,-108 372.5,-112 351.5,-112 348.5,-108 304.5,-108 304.5,-72 375.5,-72 375.5,-108"/>
<text text-anchor="middle" x="340" y="-87.5" font-family="Arial" font-size="10.00">prj&#45;cust&#45;prod</text>
</g>
<!-- Domain&#45;&gt;Prod -->
<g id="edge5" class="edge">
<title>Domain&#45;&gt;Prod</title>
<path fill="none" stroke="#5f6368" d="M340,-143.7C340,-135.98 340,-126.71 340,-118.11"/>
<polygon fill="#5f6368" stroke="#5f6368" points="343.5,-118.1 340,-108.1 336.5,-118.1 343.5,-118.1"/>
</g>
<!-- Restricted -->
<g id="node7" class="node">
<title>Restricted</title>
<polygon fill="#e8f0fe" stroke="#5f6368" points="646,-108 643,-112 622,-112 619,-108 532,-108 532,-72 646,-72 646,-108"/>
<text text-anchor="middle" x="589" y="-87.5" font-family="Arial" font-size="10.00">prj&#45;cust&#45;restricted&#45;prod</text>
</g>
<!-- Domain&#45;&gt;Restricted -->
<g id="edge6" class="edge">
<title>Domain&#45;&gt;Restricted</title>
<path fill="none" stroke="#5f6368" d="M399.64,-144.23C436.49,-133.87 483.86,-120.56 522,-109.84"/>
<polygon fill="#5f6368" stroke="#5f6368" points="523.31,-113.1 531.99,-107.03 521.41,-106.37 523.31,-113.1"/>
</g>
<!-- Marketplace -->
<g id="node8" class="node">
<title>Marketplace</title>
<polygon fill="#e8f0fe" stroke="#5f6368" points="500.5,-108 497.5,-112 476.5,-112 473.5,-108 395.5,-108 395.5,-72 500.5,-72 500.5,-108"/>
<text text-anchor="middle" x="448" y="-87.5" font-family="Arial" font-size="10.00">prj&#45;data&#45;marketplace</text>
</g>
<!-- Domain&#45;&gt;Marketplace -->
<g id="edge7" class="edge">
<title>Domain&#45;&gt;Marketplace</title>
<path fill="none" stroke="#5f6368" d="M366.42,-143.88C380.41,-134.81 397.78,-123.55 412.89,-113.76"/>
<polygon fill="#5f6368" stroke="#5f6368" points="414.99,-116.57 421.48,-108.19 411.18,-110.69 414.99,-116.57"/>
</g>
<!-- Raw -->
<g id="node9" class="node">
<title>Raw</title>
<path fill="#e6f4ea" stroke="#5f6368" d="M66,-36C66,-36 12,-36 12,-36 6,-36 0,-30 0,-24 0,-24 0,-12 0,-12 0,-6 6,0 12,0 12,0 66,0 66,0 72,0 78,-6 78,-12 78,-12 78,-24 78,-24 78,-30 72,-36 66,-36"/>
<text text-anchor="middle" x="39" y="-15.5" font-family="Arial" font-size="10.00">customer_raw</text>
</g>
<!-- Prod&#45;&gt;Raw -->
<g id="edge8" class="edge">
<title>Prod&#45;&gt;Raw</title>
<path fill="none" stroke="#5f6368" d="M304.34,-74.83C301.21,-73.8 298.06,-72.84 295,-72 207.49,-48.13 179.61,-58.96 87.81,-35.96"/>
<polygon fill="#5f6368" stroke="#5f6368" points="88.68,-32.57 78.12,-33.46 86.94,-39.34 88.68,-32.57"/>
</g>
<!-- Silver -->
<g id="node10" class="node">
<title>Silver</title>
<path fill="#e6f4ea" stroke="#5f6368" d="M170,-36C170,-36 108,-36 108,-36 102,-36 96,-30 96,-24 96,-24 96,-12 96,-12 96,-6 102,0 108,0 108,0 170,0 170,0 176,0 182,-6 182,-12 182,-12 182,-24 182,-24 182,-30 176,-36 170,-36"/>
<text text-anchor="middle" x="139" y="-15.5" font-family="Arial" font-size="10.00">customer_silver</text>
</g>
<!-- Prod&#45;&gt;Silver -->
<g id="edge9" class="edge">
<title>Prod&#45;&gt;Silver</title>
<path fill="none" stroke="#5f6368" d="M304.18,-75.34C301.08,-74.2 297.99,-73.07 295,-72 260.74,-59.71 222.01,-46.55 191.7,-36.41"/>
<polygon fill="#5f6368" stroke="#5f6368" points="192.77,-33.08 182.18,-33.23 190.55,-39.72 192.77,-33.08"/>
</g>
<!-- Gold -->
<g id="node11" class="node">
<title>Gold</title>
<path fill="#e6f4ea" stroke="#5f6368" d="M268,-36C268,-36 212,-36 212,-36 206,-36 200,-30 200,-24 200,-24 200,-12 200,-12 200,-6 206,0 212,0 212,0 268,0 268,0 274,0 280,-6 280,-12 280,-12 280,-24 280,-24 280,-30 274,-36 268,-36"/>
<text text-anchor="middle" x="240" y="-15.5" font-family="Arial" font-size="10.00">customer_gold</text>
</g>
<!-- Prod&#45;&gt;Gold -->
<g id="edge10" class="edge">
<title>Prod&#45;&gt;Gold</title>
<path fill="none" stroke="#5f6368" d="M315.54,-71.88C302.7,-62.89 286.8,-51.76 272.91,-42.03"/>
<polygon fill="#5f6368" stroke="#5f6368" points="274.76,-39.06 264.56,-36.19 270.74,-44.79 274.76,-39.06"/>
</g>
<!-- Products -->
<g id="node12" class="node">
<title>Products</title>
<path fill="#e6f4ea" stroke="#5f6368" d="M488,-36C488,-36 412,-36 412,-36 406,-36 400,-30 400,-24 400,-24 400,-12 400,-12 400,-6 406,0 412,0 412,0 488,0 488,0 494,0 500,-6 500,-12 500,-12 500,-24 500,-24 500,-30 494,-36 488,-36"/>
<text text-anchor="middle" x="450" y="-15.5" font-family="Arial" font-size="10.00">customer_products</text>
</g>
<!-- Prod&#45;&gt;Products -->
<g id="edge11" class="edge">
<title>Prod&#45;&gt;Products</title>
<path fill="none" stroke="#5f6368" d="M366.91,-71.88C381.16,-62.81 398.85,-51.55 414.24,-41.76"/>
<polygon fill="#5f6368" stroke="#5f6368" points="416.43,-44.51 422.99,-36.19 412.67,-38.61 416.43,-44.51"/>
</g>
<!-- Audit -->
<g id="node13" class="node">
<title>Audit</title>
<path fill="#e6f4ea" stroke="#5f6368" d="M369.5,-36C369.5,-36 310.5,-36 310.5,-36 304.5,-36 298.5,-30 298.5,-24 298.5,-24 298.5,-12 298.5,-12 298.5,-6 304.5,0 310.5,0 310.5,0 369.5,0 369.5,0 375.5,0 381.5,-6 381.5,-12 381.5,-12 381.5,-24 381.5,-24 381.5,-30 375.5,-36 369.5,-36"/>
<text text-anchor="middle" x="340" y="-15.5" font-family="Arial" font-size="10.00">customer_audit</text>
</g>
<!-- Prod&#45;&gt;Audit -->
<g id="edge12" class="edge">
<title>Prod&#45;&gt;Audit</title>
<path fill="none" stroke="#5f6368" d="M340,-71.7C340,-63.98 340,-54.71 340,-46.11"/>
<polygon fill="#5f6368" stroke="#5f6368" points="343.5,-46.1 340,-36.1 336.5,-46.1 343.5,-46.1"/>
</g>
<!-- Sec -->
<g id="node14" class="node">
<title>Sec</title>
<path fill="#e6f4ea" stroke="#5f6368" d="M667.5,-36C667.5,-36 530.5,-36 530.5,-36 524.5,-36 518.5,-30 518.5,-24 518.5,-24 518.5,-12 518.5,-12 518.5,-6 524.5,0 530.5,0 530.5,0 667.5,0 667.5,0 673.5,0 679.5,-6 679.5,-12 679.5,-12 679.5,-24 679.5,-24 679.5,-30 673.5,-36 667.5,-36"/>
<text text-anchor="middle" x="599" y="-15.5" font-family="Arial" font-size="10.00">policy tags / row filters / masking</text>
</g>
<!-- Restricted&#45;&gt;Sec -->
<g id="edge13" class="edge">
<title>Restricted&#45;&gt;Sec</title>
<path fill="none" stroke="#5f6368" d="M591.47,-71.7C592.57,-63.98 593.9,-54.71 595.13,-46.11"/>
<polygon fill="#5f6368" stroke="#5f6368" points="598.61,-46.5 596.56,-36.1 591.68,-45.51 598.61,-46.5"/>
</g>
<!-- Marketplace&#45;&gt;Products -->
<g id="edge14" class="edge">
<title>Marketplace&#45;&gt;Products</title>
<path fill="none" stroke="#5f6368" d="M448.49,-71.7C448.71,-63.98 448.98,-54.71 449.23,-46.11"/>
<polygon fill="#5f6368" stroke="#5f6368" points="452.72,-46.2 449.51,-36.1 445.73,-46 452.72,-46.2"/>
</g>
</g>
</svg>
