<?xml version="1.0" encoding="UTF-8" standalone="no"?>
<!DOCTYPE svg PUBLIC "-//W3C//DTD SVG 1.1//EN"
 "http://www.w3.org/Graphics/SVG/1.1/DTD/svg11.dtd">
<!-- Generated by graphviz version 2.42.4 (0)
 -->
<!-- Title: G Pages: 1 -->
<svg width="1280pt" height="630pt"
 viewBox="0.00 0.00 1279.80 630.21" xmlns="http://www.w3.org/2000/svg" xmlns:xlink="http://www.w3.org/1999/xlink">
<g id="graph0" class="graph" transform="scale(1 1) rotate(0) translate(14.4 615.81)">
<title>G</title>
<polygon fill="white" stroke="transparent" points="-14.4,14.4 -14.4,-615.81 1265.4,-615.81 1265.4,14.4 -14.4,14.4"/>
<g id="clust1" class="cluster">
<title>cluster_domains</title>
<path fill="white" stroke="#1a73e8" d="M12,-178.41C12,-178.41 117,-178.41 117,-178.41 123,-178.41 129,-184.41 129,-190.41 129,-190.41 129,-581.41 129,-581.41 129,-587.41 123,-593.41 117,-593.41 117,-593.41 12,-593.41 12,-593.41 6,-593.41 0,-587.41 0,-581.41 0,-581.41 0,-190.41 0,-190.41 0,-184.41 6,-178.41 12,-178.41"/>
<text text-anchor="middle" x="64.5" y="-578.21" font-family="Arial" font-size="14.00">Business Domains</text>
</g>
<g id="clust2" class="cluster">
<title>cluster_platform</title>
<path fill="white" stroke="#34a853" d="M172,-348.41C172,-348.41 1032,-348.41 1032,-348.41 1038,-348.41 1044,-354.41 1044,-360.41 1044,-360.41 1044,-411.41 1044,-411.41 1044,-417.41 1038,-423.41 1032,-423.41 1032,-423.41 172,-423.41 172,-423.41 166,-423.41 160,-417.41 160,-411.41 160,-411.41 160,-360.41 160,-360.41 160,-354.41 166,-348.41 172,-348.41"/>
<text text-anchor="middle" x="602" y="-408.21" font-family="Arial" font-size="14.00">Self&#45;Service Data Platform</text>
</g>
<g id="clust3" class="cluster">
<title>cluster_gov</title>
<path fill="white" stroke="#fbbc04" d="M702,-61.41C702,-61.41 1023.5,-61.41 1023.5,-61.41 1029.5,-61.41 1035.5,-67.41 1035.5,-73.41 1035.5,-73.41 1035.5,-328.41 1035.5,-328.41 1035.5,-334.41 1029.5,-340.41 1023.5,-340.41 1023.5,-340.41 702,-340.41 702,-340.41 696,-340.41 690,-334.41 690,-328.41 690,-328.41 690,-73.41 690,-73.41 690,-67.41 696,-61.41 702,-61.41"/>
<text text-anchor="middle" x="862.75" y="-325.21" font-family="Arial" font-size="14.00">Federated Computational Governance</text>
</g>
<!-- Healthcare -->
<g id="node1" class="node">
<title>Healthcare</title>
<path fill="#e8f0fe" stroke="#5f6368" d="M84.5,-562.41C84.5,-562.41 44.5,-562.41 44.5,-562.41 38.5,-562.41 32.5,-556.41 32.5,-550.41 32.5,-550.41 32.5,-538.41 32.5,-538.41 32.5,-532.41 38.5,-526.41 44.5,-526.41 44.5,-526.41 84.5,-526.41 84.5,-526.41 90.5,-526.41 96.5,-532.41 96.5,-538.41 96.5,-538.41 96.5,-550.41 96.5,-550.41 96.5,-556.41 90.5,-562.41 84.5,-562.41"/>
<text text-anchor="middle" x="64.5" y="-541.91" font-family="Arial" font-size="10.00">Healthcare</text>
</g>
<!-- ProjectFactory -->
<g id="node7" class="node">
<title>ProjectFactory</title>
<path fill="#e8f0fe" stroke="#5f6368" d="M276,-392.41C276,-392.41 180,-392.41 180,-392.41 174,-392.41 168,-386.41 168,-380.41 168,-380.41 168,-368.41 168,-368.41 168,-362.41 174,-356.41 180,-356.41 180,-356.41 276,-356.41 276,-356.41 282,-356.41 288,-362.41 288,-368.41 288,-368.41 288,-380.41 288,-380.41 288,-386.41 282,-392.41 276,-392.41"/>
<text text-anchor="middle" x="228" y="-371.91" font-family="Arial" font-size="10.00">Domain Project Factory</text>
</g>
<!-- Healthcare&#45;&gt;ProjectFactory -->
<g id="edge1" class="edge">
<title>Healthcare&#45;&gt;ProjectFactory</title>
<path fill="none" stroke="#5f6368" d="M96.69,-531.26C107.61,-525.78 119.5,-518.73 129,-510.41 165.16,-478.76 195.45,-431.36 212.39,-401.69"/>
<polygon fill="#5f6368" stroke="#5f6368" points="215.58,-403.16 217.41,-392.73 209.47,-399.74 215.58,-403.16"/>
</g>
<!-- Finance -->
<g id="node2" class="node">
<title>Finance</title>
<path fill="#e8f0fe" stroke="#5f6368" d="M79.5,-494.41C79.5,-494.41 49.5,-494.41 49.5,-494.41 43.5,-494.41 37.5,-488.41 37.5,-482.41 37.5,-482.41 37.5,-470.41 37.5,-470.41 37.5,-464.41 43.5,-458.41 49.5,-458.41 49.5,-458.41 79.5,-458.41 79.5,-458.41 85.5,-458.41 91.5,-464.41 91.5,-470.41 91.5,-470.41 91.5,-482.41 91.5,-482.41 91.5,-488.41 85.5,-494.41 79.5,-494.41"/>
<text text-anchor="middle" x="64.5" y="-473.91" font-family="Arial" font-size="10.00">Finance</text>
</g>
<!-- Finance&#45;&gt;ProjectFactory -->
<g id="edge2" class="edge">
<title>Finance&#45;&gt;ProjectFactory</title>
<path fill="none" stroke="#5f6368" d="M91.52,-463.34C103.16,-457.28 116.95,-449.79 129,-442.41 151.36,-428.73 175.58,-411.95 194.34,-398.48"/>
<polygon fill="#5f6368" stroke="#5f6368" points="196.5,-401.24 202.55,-392.55 192.4,-395.57 196.5,-401.24"/>
</g>
<!-- HR -->
<g id="node3" class="node">
<title>HR</title>
<path fill="#e8f0fe" stroke="#5f6368" d="M79.5,-426.41C79.5,-426.41 49.5,-426.41 49.5,-426.41 43.5,-426.41 37.5,-420.41 37.5,-414.41 37.5,-414.41 37.5,-402.41 37.5,-402.41 37.5,-396.41 43.5,-390.41 49.5,-390.41 49.5,-390.41 79.5,-390.41 79.5,-390.41 85.5,-390.41 91.5,-396.41 91.5,-402.41 91.5,-402.41 91.5,-414.41 91.5,-414.41 91.5,-420.41 85.5,-426.41 79.5,-426.41"/>
<text text-anchor="middle" x="64.5" y="-405.91" font-family="Arial" font-size="10.00">HR</text>
</g>
<!-- HR&#45;&gt;ProjectFactory -->
<g id="edge3" class="edge">
<title>HR&#45;&gt;ProjectFactory</title>
<path fill="none" stroke="#5f6368" d="M91.81,-402.88C109.8,-399.09 134.53,-393.88 157.93,-388.96"/>
<polygon fill="#5f6368" stroke="#5f6368" points="158.79,-392.35 167.85,-386.87 157.34,-385.5 158.79,-392.35"/>
</g>
<!-- Sales -->
<g id="node4" class="node">
<title>Sales</title>
<path fill="#e8f0fe" stroke="#5f6368" d="M79.5,-358.41C79.5,-358.41 49.5,-358.41 49.5,-358.41 43.5,-358.41 37.5,-352.41 37.5,-346.41 37.5,-346.41 37.5,-334.41 37.5,-334.41 37.5,-328.41 43.5,-322.41 49.5,-322.41 49.5,-322.41 79.5,-322.41 79.5,-322.41 85.5,-322.41 91.5,-328.41 91.5,-334.41 91.5,-334.41 91.5,-346.41 91.5,-346.41 91.5,-352.41 85.5,-358.41 79.5,-358.41"/>
<text text-anchor="middle" x="64.5" y="-337.91" font-family="Arial" font-size="10.00">Sales</text>
</g>
<!-- Sales&#45;&gt;ProjectFactory -->
<g id="edge4" class="edge">
<title>Sales&#45;&gt;ProjectFactory</title>
<path fill="none" stroke="#5f6368" d="M91.81,-345.95C109.8,-349.74 134.53,-354.95 157.93,-359.87"/>
<polygon fill="#5f6368" stroke="#5f6368" points="157.34,-363.33 167.85,-361.96 158.79,-356.48 157.34,-363.33"/>
</g>
<!-- Marketing -->
<g id="node5" class="node">
<title>Marketing</title>
<path fill="#e8f0fe" stroke="#5f6368" d="M82,-290.41C82,-290.41 47,-290.41 47,-290.41 41,-290.41 35,-284.41 35,-278.41 35,-278.41 35,-266.41 35,-266.41 35,-260.41 41,-254.41 47,-254.41 47,-254.41 82,-254.41 82,-254.41 88,-254.41 94,-260.41 94,-266.41 94,-266.41 94,-278.41 94,-278.41 94,-284.41 88,-290.41 82,-290.41"/>
<text text-anchor="middle" x="64.5" y="-269.91" font-family="Arial" font-size="10.00">Marketing</text>
</g>
<!-- Marketing&#45;&gt;ProjectFactory -->
<g id="edge5" class="edge">
<title>Marketing&#45;&gt;ProjectFactory</title>
<path fill="none" stroke="#5f6368" d="M94.03,-286.79C105.1,-292.61 117.8,-299.56 129,-306.41 151.36,-320.1 175.58,-336.88 194.34,-350.35"/>
<polygon fill="#5f6368" stroke="#5f6368" points="192.4,-353.26 202.55,-356.28 196.5,-347.59 192.4,-353.26"/>
</g>
<!-- SupplyChain -->
<g id="node6" class="node">
<title>SupplyChain</title>
<path fill="#e8f0fe" stroke="#5f6368" d="M90,-222.41C90,-222.41 39,-222.41 39,-222.41 33,-222.41 27,-216.41 27,-210.41 27,-210.41 27,-198.41 27,-198.41 27,-192.41 33,-186.41 39,-186.41 39,-186.41 90,-186.41 90,-186.41 96,-186.41 102,-192.41 102,-198.41 102,-198.41 102,-210.41 102,-210.41 102,-216.41 96,-222.41 90,-222.41"/>
<text text-anchor="middle" x="64.5" y="-201.91" font-family="Arial" font-size="10.00">Supply Chain</text>
</g>
<!-- SupplyChain&#45;&gt;ProjectFactory -->
<g id="edge6" class="edge">
<title>SupplyChain&#45;&gt;ProjectFactory</title>
<path fill="none" stroke="#5f6368" d="M102.27,-220.47C111.54,-225.46 121.1,-231.5 129,-238.41 165.16,-270.07 195.45,-317.47 212.39,-347.14"/>
<polygon fill="#5f6368" stroke="#5f6368" points="209.47,-349.09 217.41,-356.1 215.58,-345.67 209.47,-349.09"/>
</g>
<!-- Ingestion -->
<g id="node8" class="node">
<title>Ingestion</title>
<path fill="#e8f0fe" stroke="#5f6368" d="M419,-392.41C419,-392.41 347,-392.41 347,-392.41 341,-392.41 335,-386.41 335,-380.41 335,-380.41 335,-368.41 335,-368.41 335,-362.41 341,-356.41 347,-356.41 347,-356.41 419,-356.41 419,-356.41 425,-356.41 431,-362.41 431,-368.41 431,-368.41 431,-380.41 431,-380.41 431,-386.41 425,-392.41 419,-392.41"/>
<text text-anchor="middle" x="383" y="-371.91" font-family="Arial" font-size="10.00">Ingestion Patterns</text>
</g>
<!-- ProjectFactory&#45;&gt;Ingestion -->
<g id="edge7" class="edge">
<title>ProjectFactory&#45;&gt;Ingestion</title>
<path fill="none" stroke="#5f6368" d="M288.15,-374.41C300.12,-374.41 312.69,-374.41 324.59,-374.41"/>
<polygon fill="#5f6368" stroke="#5f6368" points="324.85,-377.91 334.85,-374.41 324.85,-370.91 324.85,-377.91"/>
</g>
<!-- Storage -->
<g id="node9" class="node">
<title>Storage</title>
<path fill="#e8f0fe" stroke="#5f6368" d="M639,-392.41C639,-392.41 490,-392.41 490,-392.41 484,-392.41 478,-386.41 478,-380.41 478,-380.41 478,-368.41 478,-368.41 478,-362.41 484,-356.41 490,-356.41 490,-356.41 639,-356.41 639,-356.41 645,-356.41 651,-362.41 651,-368.41 651,-368.41 651,-380.41 651,-380.41 651,-386.41 645,-392.41 639,-392.41"/>
<text text-anchor="middle" x="564.5" y="-371.91" font-family="Arial" font-size="10.00">Cloud Storage / BigLake / BigQuery</text>
</g>
<!-- Ingestion&#45;&gt;Storage -->
<g id="edge8" class="edge">
<title>Ingestion&#45;&gt;Storage</title>
<path fill="none" stroke="#5f6368" d="M431.16,-374.41C442.47,-374.41 454.96,-374.41 467.61,-374.41"/>
<polygon fill="#5f6368" stroke="#5f6368" points="467.77,-377.91 477.77,-374.41 467.77,-370.91 467.77,-377.91"/>
</g>
<!-- Dataform -->
<g id="node10" class="node">
<title>Dataform</title>
<path fill="#e8f0fe" stroke="#5f6368" d="M820.5,-392.41C820.5,-392.41 715.5,-392.41 715.5,-392.41 709.5,-392.41 703.5,-386.41 703.5,-380.41 703.5,-380.41 703.5,-368.41 703.5,-368.41 703.5,-362.41 709.5,-356.41 715.5,-356.41 715.5,-356.41 820.5,-356.41 820.5,-356.41 826.5,-356.41 832.5,-362.41 832.5,-368.41 832.5,-368.41 832.5,-380.41 832.5,-380.41 832.5,-386.41 826.5,-392.41 820.5,-392.41"/>
<text text-anchor="middle" x="768" y="-371.91" font-family="Arial" font-size="10.00">Transformation Standards</text>
</g>
<!-- Storage&#45;&gt;Dataform -->
<g id="edge9" class="edge">
<title>Storage&#45;&gt;Dataform</title>
<path fill="none" stroke="#5f6368" d="M651.25,-374.41C665.16,-374.41 679.46,-374.41 693.06,-374.41"/>
<polygon fill="#5f6368" stroke="#5f6368" points="693.31,-377.91 703.31,-374.41 693.31,-370.91 693.31,-377.91"/>
</g>
<!-- Catalog -->
<g id="node12" class="node">
<title>Catalog</title>
<path fill="#e8f0fe" stroke="#5f6368" d="M806.5,-173.41C806.5,-173.41 729.5,-173.41 729.5,-173.41 723.5,-173.41 717.5,-167.41 717.5,-161.41 717.5,-161.41 717.5,-149.41 717.5,-149.41 717.5,-143.41 723.5,-137.41 729.5,-137.41 729.5,-137.41 806.5,-137.41 806.5,-137.41 812.5,-137.41 818.5,-143.41 818.5,-149.41 818.5,-149.41 818.5,-161.41 818.5,-161.41 818.5,-167.41 812.5,-173.41 806.5,-173.41"/>
<text text-anchor="middle" x="768" y="-152.91" font-family="Arial" font-size="10.00">Knowledge Catalog</text>
</g>
<!-- Storage&#45;&gt;Catalog -->
<g id="edge11" class="edge">
<title>Storage&#45;&gt;Catalog</title>
<path fill="none" stroke="#5f6368" d="M573.48,-356.16C590.18,-319.85 632.12,-237.88 690,-189.41 695.55,-184.77 701.83,-180.65 708.35,-177.03"/>
<polygon fill="#5f6368" stroke="#5f6368" points="710.06,-180.08 717.35,-172.39 706.86,-173.86 710.06,-180.08"/>
</g>
<!-- Consumers -->
<g id="node17" class="node">
<title>Consumers</title>
<path fill="#fce8e6" stroke="#5f6368" d="M1239,-71.41C1239,-71.41 1095,-71.41 1095,-71.41 1089,-71.41 1083,-65.41 1083,-59.41 1083,-59.41 1083,-47.41 1083,-47.41 1083,-41.41 1089,-35.41 1095,-35.41 1095,-35.41 1239,-35.41 1239,-35.41 1245,-35.41 1251,-41.41 1251,-47.41 1251,-47.41 1251,-59.41 1251,-59.41 1251,-65.41 1245,-71.41 1239,-71.41"/>
<text text-anchor="middle" x="1167" y="-50.91" font-family="Arial" font-size="10.00">Consumers: BI, AI, Apps, Partners</text>
</g>
<!-- Storage&#45;&gt;Consumers -->
<g id="edge18" class="edge">
<title>Storage&#45;&gt;Consumers</title>
<path fill="none" stroke="#5f6368" d="M565.97,-356.38C568.52,-299.8 584.95,-125.35 690,-53.41 814.76,32.01 1004.33,-4.67 1102.34,-32.56"/>
<polygon fill="#5f6368" stroke="#5f6368" points="1101.53,-35.97 1112.11,-35.39 1103.48,-29.24 1101.53,-35.97"/>
</g>
<!-- Observability -->
<g id="node11" class="node">
<title>Observability</title>
<path fill="#e8f0fe" stroke="#5f6368" d="M1024,-392.41C1024,-392.41 897,-392.41 897,-392.41 891,-392.41 885,-386.41 885,-380.41 885,-380.41 885,-368.41 885,-368.41 885,-362.41 891,-356.41 897,-356.41 897,-356.41 1024,-356.41 1024,-356.41 1030,-356.41 1036,-362.41 1036,-368.41 1036,-368.41 1036,-380.41 1036,-380.41 1036,-386.41 1030,-392.41 1024,-392.41"/>
<text text-anchor="middle" x="960.5" y="-371.91" font-family="Arial" font-size="10.00">SLO / Quality / Cost Telemetry</text>
</g>
<!-- Dataform&#45;&gt;Observability -->
<g id="edge10" class="edge">
<title>Dataform&#45;&gt;Observability</title>
<path fill="none" stroke="#5f6368" d="M832.7,-374.41C846.19,-374.41 860.63,-374.41 874.76,-374.41"/>
<polygon fill="#5f6368" stroke="#5f6368" points="874.98,-377.91 884.98,-374.41 874.98,-370.91 874.98,-377.91"/>
</g>
<!-- Dataform&#45;&gt;Catalog -->
<g id="edge12" class="edge">
<title>Dataform&#45;&gt;Catalog</title>
<path fill="none" stroke="#5f6368" d="M703.31,-361.63C689.44,-355.41 677,-346.16 670.5,-332.41 646.36,-281.39 646.36,-256.44 670.5,-205.41 677.91,-189.75 692.4,-178.9 707.99,-171.42"/>
<polygon fill="#5f6368" stroke="#5f6368" points="709.47,-174.59 717.25,-167.4 706.68,-168.17 709.47,-174.59"/>
</g>
<!-- Marketplace -->
<g id="node16" class="node">
<title>Marketplace</title>
<path fill="#e8f0fe" stroke="#5f6368" d="M1015.5,-139.41C1015.5,-139.41 905.5,-139.41 905.5,-139.41 899.5,-139.41 893.5,-133.41 893.5,-127.41 893.5,-127.41 893.5,-115.41 893.5,-115.41 893.5,-109.41 899.5,-103.41 905.5,-103.41 905.5,-103.41 1015.5,-103.41 1015.5,-103.41 1021.5,-103.41 1027.5,-109.41 1027.5,-115.41 1027.5,-115.41 1027.5,-127.41 1027.5,-127.41 1027.5,-133.41 1021.5,-139.41 1015.5,-139.41"/>
<text text-anchor="middle" x="960.5" y="-118.91" font-family="Arial" font-size="10.00">Analytics Hub Marketplace</text>
</g>
<!-- Catalog&#45;&gt;Marketplace -->
<g id="edge13" class="edge">
<title>Catalog&#45;&gt;Marketplace</title>
<path fill="none" stroke="#5f6368" d="M818.55,-146.57C838.34,-143.04 861.58,-138.89 883.42,-134.99"/>
<polygon fill="#5f6368" stroke="#5f6368" points="884.11,-138.43 893.33,-133.22 882.88,-131.53 884.11,-138.43"/>
</g>
<!-- Policy -->
<g id="node13" class="node">
<title>Policy</title>
<path fill="#e8f0fe" stroke="#5f6368" d="M826,-241.41C826,-241.41 710,-241.41 710,-241.41 704,-241.41 698,-235.41 698,-229.41 698,-229.41 698,-217.41 698,-217.41 698,-211.41 704,-205.41 710,-205.41 710,-205.41 826,-205.41 826,-205.41 832,-205.41 838,-211.41 838,-217.41 838,-217.41 838,-229.41 838,-229.41 838,-235.41 832,-241.41 826,-241.41"/>
<text text-anchor="middle" x="768" y="-220.91" font-family="Arial" font-size="10.00">Policy Tags / IAM / Masking</text>
</g>
<!-- Policy&#45;&gt;Storage -->
<g id="edge14" class="edge">
<title>Policy&#45;&gt;Storage</title>
<path fill="none" stroke="#5f6368" d="M719.25,-241.48C709.25,-246.08 699.02,-251.44 690,-257.41 650.34,-283.69 611.5,-322.97 588.02,-348.65"/>
<polygon fill="#5f6368" stroke="#5f6368" points="585.35,-346.38 581.25,-356.15 590.55,-351.07 585.35,-346.38"/>
</g>
<!-- Quality -->
<g id="node14" class="node">
<title>Quality</title>
<path fill="#e8f0fe" stroke="#5f6368" d="M807,-309.41C807,-309.41 729,-309.41 729,-309.41 723,-309.41 717,-303.41 717,-297.41 717,-297.41 717,-285.41 717,-285.41 717,-279.41 723,-273.41 729,-273.41 729,-273.41 807,-273.41 807,-273.41 813,-273.41 819,-279.41 819,-285.41 819,-285.41 819,-297.41 819,-297.41 819,-303.41 813,-309.41 807,-309.41"/>
<text text-anchor="middle" x="768" y="-288.91" font-family="Arial" font-size="10.00">Data Quality Scans</text>
</g>
<!-- Quality&#45;&gt;Observability -->
<g id="edge16" class="edge">
<title>Quality&#45;&gt;Observability</title>
<path fill="none" stroke="#5f6368" d="M803.01,-309.48C825.87,-321.29 856.85,-336.64 885,-348.41 888.42,-349.85 891.96,-351.27 895.54,-352.66"/>
<polygon fill="#5f6368" stroke="#5f6368" points="894.5,-356.01 905.09,-356.29 896.98,-349.47 894.5,-356.01"/>
</g>
<!-- Contracts -->
<g id="node15" class="node">
<title>Contracts</title>
<path fill="#e8f0fe" stroke="#5f6368" d="M797.5,-105.41C797.5,-105.41 738.5,-105.41 738.5,-105.41 732.5,-105.41 726.5,-99.41 726.5,-93.41 726.5,-93.41 726.5,-81.41 726.5,-81.41 726.5,-75.41 732.5,-69.41 738.5,-69.41 738.5,-69.41 797.5,-69.41 797.5,-69.41 803.5,-69.41 809.5,-75.41 809.5,-81.41 809.5,-81.41 809.5,-93.41 809.5,-93.41 809.5,-99.41 803.5,-105.41 797.5,-105.41"/>
<text text-anchor="middle" x="768" y="-84.91" font-family="Arial" font-size="10.00">Data Contracts</text>
</g>
<!-- Contracts&#45;&gt;Dataform -->
<g id="edge15" class="edge">
<title>Contracts&#45;&gt;Dataform</title>
<path fill="none" stroke="#5f6368" d="M726.29,-96.15C704.72,-103.2 680.79,-115.66 670.5,-137.41 651.97,-176.59 651.97,-293.24 670.5,-332.41 675.53,-343.05 684.11,-350.99 694.16,-356.92"/>
<polygon fill="#5f6368" stroke="#5f6368" points="692.82,-360.16 703.31,-361.63 696.02,-353.94 692.82,-360.16"/>
</g>
<!-- Marketplace&#45;&gt;Consumers -->
<g id="edge17" class="edge">
<title>Marketplace&#45;&gt;Consumers</title>
<path fill="none" stroke="#5f6368" d="M1015.77,-103.37C1042.33,-94.54 1074.49,-83.84 1102.23,-74.62"/>
<polygon fill="#5f6368" stroke="#5f6368" points="1103.45,-77.9 1111.84,-71.42 1101.24,-71.26 1103.45,-77.9"/>
</g>
</g>
</svg>
