<?xml version="1.0" encoding="UTF-8" standalone="no"?>
<!DOCTYPE svg PUBLIC "-//W3C//DTD SVG 1.1//EN"
 "http://www.w3.org/Graphics/SVG/1.1/DTD/svg11.dtd">
<!-- Generated by graphviz version 2.42.4 (0)
 -->
<!-- Title: G Pages: 1 -->
<svg width="955pt" height="124pt"
 viewBox="0.00 0.00 954.80 123.80" xmlns="http://www.w3.org/2000/svg" xmlns:xlink="http://www.w3.org/1999/xlink">
<g id="graph0" class="graph" transform="scale(1 1) rotate(0) translate(14.4 109.4)">
<title>G</title>
<polygon fill="white" stroke="transparent" points="-14.4,14.4 -14.4,-109.4 940.4,-109.4 940.4,14.4 -14.4,14.4"/>
<!-- Council -->
<g id="node1" class="node">
<title>Council</title>
<path fill="#fef7e0" stroke="#5f6368" d="M117,-95C117,-95 12,-95 12,-95 6,-95 0,-89 0,-83 0,-83 0,-71 0,-71 0,-65 6,-59 12,-59 12,-59 117,-59 117,-59 123,-59 129,-65 129,-71 129,-71 129,-83 129,-83 129,-89 123,-95 117,-95"/>
<text text-anchor="middle" x="64.5" y="-74.5" font-family="Arial" font-size="10.00">Data Governance Council</text>
</g>
<!-- CDO -->
<g id="node2" class="node">
<title>CDO</title>
<path fill="#fef7e0" stroke="#5f6368" d="M249,-95C249,-95 181,-95 181,-95 175,-95 169,-89 169,-83 169,-83 169,-71 169,-71 169,-65 175,-59 181,-59 181,-59 249,-59 249,-59 255,-59 261,-65 261,-71 261,-71 261,-83 261,-83 261,-89 255,-95 249,-95"/>
<text text-anchor="middle" x="215" y="-74.5" font-family="Arial" font-size="10.00">Chief Data Office</text>
</g>
<!-- Council&#45;&gt;CDO -->
<g id="edge1" class="edge">
<title>Council&#45;&gt;CDO</title>
<path fill="none" stroke="#5f6368" d="M129.34,-77C139.04,-77 148.98,-77 158.48,-77"/>
<polygon fill="#5f6368" stroke="#5f6368" points="158.59,-80.5 168.59,-77 158.59,-73.5 158.59,-80.5"/>
</g>
<!-- Platform -->
<g id="node3" class="node">
<title>Platform</title>
<path fill="#e6f4ea" stroke="#5f6368" d="M405,-36C405,-36 313,-36 313,-36 307,-36 301,-30 301,-24 301,-24 301,-12 301,-12 301,-6 307,0 313,0 313,0 405,0 405,0 411,0 417,-6 417,-12 417,-12 417,-24 417,-24 417,-30 411,-36 405,-36"/>
<text text-anchor="middle" x="359" y="-15.5" font-family="Arial" font-size="10.00">Platform Product Team</text>
</g>
<!-- CDO&#45;&gt;Platform -->
<g id="edge2" class="edge">
<title>CDO&#45;&gt;Platform</title>
<path fill="none" stroke="#5f6368" d="M259.38,-58.98C273.69,-53.03 289.79,-46.34 304.76,-40.12"/>
<polygon fill="#5f6368" stroke="#5f6368" points="306.51,-43.18 314.4,-36.12 303.82,-36.72 306.51,-43.18"/>
</g>
<!-- DomainOwner -->
<g id="node5" class="node">
<title>DomainOwner</title>
<path fill="#e8f0fe" stroke="#5f6368" d="M400,-95C400,-95 318,-95 318,-95 312,-95 306,-89 306,-83 306,-83 306,-71 306,-71 306,-65 312,-59 318,-59 318,-59 400,-59 400,-59 406,-59 412,-65 412,-71 412,-71 412,-83 412,-83 412,-89 406,-95 400,-95"/>
<text text-anchor="middle" x="359" y="-74.5" font-family="Arial" font-size="10.00">Domain Data Owner</text>
</g>
<!-- CDO&#45;&gt;DomainOwner -->
<g id="edge3" class="edge">
<title>CDO&#45;&gt;DomainOwner</title>
<path fill="none" stroke="#5f6368" d="M261.32,-77C272.31,-77 284.24,-77 295.85,-77"/>
<polygon fill="#5f6368" stroke="#5f6368" points="295.94,-80.5 305.94,-77 295.94,-73.5 295.94,-80.5"/>
</g>
<!-- Producer -->
<g id="node7" class="node">
<title>Producer</title>
<path fill="#e8f0fe" stroke="#5f6368" d="M543,-36C543,-36 466,-36 466,-36 460,-36 454,-30 454,-24 454,-24 454,-12 454,-12 454,-6 460,0 466,0 466,0 543,0 543,0 549,0 555,-6 555,-12 555,-12 555,-24 555,-24 555,-30 549,-36 543,-36"/>
<text text-anchor="middle" x="504.5" y="-15.5" font-family="Arial" font-size="10.00">Data Product Team</text>
</g>
<!-- Platform&#45;&gt;Producer -->
<g id="edge8" class="edge">
<title>Platform&#45;&gt;Producer</title>
<path fill="none" stroke="#5f6368" d="M417.13,-18C425.89,-18 434.96,-18 443.78,-18"/>
<polygon fill="#5f6368" stroke="#5f6368" points="443.98,-21.5 453.98,-18 443.98,-14.5 443.98,-21.5"/>
</g>
<!-- Security -->
<g id="node4" class="node">
<title>Security</title>
<path fill="#fce8e6" stroke="#5f6368" d="M252,-36C252,-36 178,-36 178,-36 172,-36 166,-30 166,-24 166,-24 166,-12 166,-12 166,-6 172,0 178,0 178,0 252,0 252,0 258,0 264,-6 264,-12 264,-12 264,-24 264,-24 264,-30 258,-36 252,-36"/>
<text text-anchor="middle" x="215" y="-15.5" font-family="Arial" font-size="10.00">Security &amp; Privacy</text>
</g>
<!-- Security&#45;&gt;Platform -->
<g id="edge4" class="edge">
<title>Security&#45;&gt;Platform</title>
<path fill="none" stroke="#5f6368" d="M264.07,-18C272.61,-18 281.64,-18 290.59,-18"/>
<polygon fill="#5f6368" stroke="#5f6368" points="290.64,-21.5 300.64,-18 290.64,-14.5 290.64,-21.5"/>
</g>
<!-- Security&#45;&gt;DomainOwner -->
<g id="edge5" class="edge">
<title>Security&#45;&gt;DomainOwner</title>
<path fill="none" stroke="#5f6368" d="M259.38,-36.02C273.69,-41.97 289.79,-48.66 304.76,-54.88"/>
<polygon fill="#5f6368" stroke="#5f6368" points="303.82,-58.28 314.4,-58.88 306.51,-51.82 303.82,-58.28"/>
</g>
<!-- Steward -->
<g id="node6" class="node">
<title>Steward</title>
<path fill="#e8f0fe" stroke="#5f6368" d="M914,-49C914,-49 861,-49 861,-49 855,-49 849,-43 849,-37 849,-37 849,-25 849,-25 849,-19 855,-13 861,-13 861,-13 914,-13 914,-13 920,-13 926,-19 926,-25 926,-25 926,-37 926,-37 926,-43 920,-49 914,-49"/>
<text text-anchor="middle" x="887.5" y="-28.5" font-family="Arial" font-size="10.00">Data Steward</text>
</g>
<!-- DomainOwner&#45;&gt;Steward -->
<g id="edge6" class="edge">
<title>DomainOwner&#45;&gt;Steward</title>
<path fill="none" stroke="#5f6368" d="M412.15,-78.61C499.63,-80.28 681.1,-79.38 831,-50 833.67,-49.48 836.39,-48.85 839.12,-48.16"/>
<polygon fill="#5f6368" stroke="#5f6368" points="840.29,-51.47 848.96,-45.38 838.39,-44.73 840.29,-51.47"/>
</g>
<!-- Steward&#45;&gt;Producer -->
<g id="edge7" class="edge">
<title>Steward&#45;&gt;Producer</title>
<path fill="none" stroke="#5f6368" d="M848.87,-23.4C792.89,-13.04 684.38,3.43 592,-4 583.3,-4.7 574.15,-5.79 565.19,-7.06"/>
<polygon fill="#5f6368" stroke="#5f6368" points="564.56,-3.61 555.19,-8.56 565.6,-10.54 564.56,-3.61"/>
</g>
<!-- Consumer -->
<g id="node8" class="node">
<title>Consumer</title>
<path fill="#f3e8fd" stroke="#5f6368" d="M666,-49C666,-49 604,-49 604,-49 598,-49 592,-43 592,-37 592,-37 592,-25 592,-25 592,-19 598,-13 604,-13 604,-13 666,-13 666,-13 672,-13 678,-19 678,-25 678,-25 678,-37 678,-37 678,-43 672,-49 666,-49"/>
<text text-anchor="middle" x="635" y="-28.5" font-family="Arial" font-size="10.00">Data Consumer</text>
</g>
<!-- Producer&#45;&gt;Consumer -->
<g id="edge9" class="edge">
<title>Producer&#45;&gt;Consumer</title>
<path fill="none" stroke="#5f6368" d="M555.18,-23.03C563.91,-23.91 573.02,-24.83 581.82,-25.72"/>
<polygon fill="#5f6368" stroke="#5f6368" points="581.66,-29.22 591.96,-26.75 582.36,-22.26 581.66,-29.22"/>
</g>
<!-- Consumer&#45;&gt;Steward -->
<g id="edge10" class="edge">
<title>Consumer&#45;&gt;Steward</title>
<path fill="none" stroke="#5f6368" d="M678.21,-31C722.54,-31 792.14,-31 838.53,-31"/>
<polygon fill="#5f6368" stroke="#5f6368" points="838.63,-34.5 848.63,-31 838.63,-27.5 838.63,-34.5"/>
<text text-anchor="middle" x="763.5" y="-34.8" font-family="Times,serif" font-size="14.00">feedback / demand</text>
</g>
</g>
</svg>
